<mxfile host="app.diagrams.net" agent="Mozilla/5.0 (Windows NT 10.0; Win64; x64) AppleWebKit/537.36 (KHTML, like Gecko) Chrome/134.0.0.0 Safari/537.36" version="26.2.8">
  <diagram name="PÃ¡gina-1" id="59wlZubd9Av4vrIv4Q9x">
    <mxGraphModel dx="1428" dy="785" grid="1" gridSize="10" guides="1" tooltips="1" connect="1" arrows="1" fold="1" page="1" pageScale="1" pageWidth="827" pageHeight="1169" math="0" shadow="0">
      <root>
        <mxCell id="0" />
        <mxCell id="1" parent="0" />
        <mxCell id="uJISzQut16sb-xaypnGJ-1" value="" style="shape=image;verticalLabelPosition=bottom;labelBackgroundColor=default;verticalAlign=top;aspect=fixed;imageAspect=0;image=data:image/png,iVBORw0KGgoAAAANSUhEUgAAAX8AAAIdCAYAAADVkH2rAAAAAXNSR0IArs4c6QAAAARnQU1BAACxjwv8YQUAAAAJcEhZcwAADsMAAA7DAcdvqGQAAIm0SURBVHhe7f1taBvXuvD/f/PHB8Y/vGEENowhBcukEJkUItMNlUleRCWFKLQQiRZi08DeTguNfQ60cgJtfO8Xjd0Nrd1Cj93exFY3pMiBFDvQYAUarL5osQopdiHBKqRYhRgkSMCCu2BBDOv/Ykb2aDS25afEjq4PDE1nrVnzIOua0Zo1cx1QSimEEEJUlf+fc4YQQojnnwR/IYSoQhL8hRCiCknwF0KIKiTBXwghqpAEfyGEqEIS/IUQogpJ8BdCiCokwV8IIaqQBH8hhKhCEvyFEKIKSfAXQogqtPng/3svzQcOcODAAQ680EPKWV6Uj/Hqf1n1fP1knPPWmFr/nVtpIvNZq63MQ9u/Z+1rMP3eT4tVJ3JzdXb+P6+WtW1OtXi8rUQujTGbtze0KvVBo8tytqm2g0Sx8jr7VOtppjXcw9hva6zIJvfzIB3+Zjy19vV4aPZ3MPjz6jGxW3s7a/H4TtN/u3y5tZcprtO2bwDLOVJfdNDqrV2t87dmWs8NklqwVxRC7Ctq0yZVu4YCFBiqK+UsNy1+FbTqoPR3psyZ96LKa81ba/J/kl1pI37KWR5S8Ser61CqtM3QtdXZcxe9ZW2XT4Zqv7G6vqLy9TomrV1NFitXsE+AMs6Oq6xz25VS6sm8Gjqpl9V3TvqZ0bLlN9xOUN6LM5tbxr5vak71HXapU5xOxUvaFkLsH5u/8idExxnN+neOxETaUW5K3Epa/9KJnA06SoGmKHNKoRzTzIeGsyZgYBgACWIjG19FO3kvzq20v/Rohvh7fsw9yDH2lpfId2u3GbpWvo1qKU7IWRHHPi0tMjPWhb/OLMpdj+B9a4LSNeUZe6OF7jvW3INhRmcXzeWfLDL/fXRl+fzN87RdcvnlY1nZzieLzH/fidean/msg/4/HZUtG+1b/utuen83/62dGGBm0ayz+GCSvlNeNK34dyCE2G+2EPwhdDZsBU/IfBejPPwnmPzR+md9hPYTjuJNa6X7gg+A5FfDZhfSFmn1ftq/miH7TdDahwIT/9O7dvfVVmk6/rNDzGRGCVoHq3Czi95fbHVuddF5u2D+uy5EfHaczqO6+f81Ot7XB5j5vpPi6TDzRQ/Da5+nTDU63tdHGXiz+Amlmby10ULu7Cfwjv8TxW9tmn4oxOXEPEsTYXt1IcQ+sqXgz+sdhIux5c8kE86+31txJqyYpp9px+W6f9O8/91ltnO/jx5b3/5W6f8YpfeI9T+5GEO3HBV2Sn0nox+ZJy7IEftytUd94tsJrMOE79IQ7fUrRatOXKa7uJ0kiX9bWSD3NTWu/Dv3MFtStnl55u5Xtl4hxP6wteBPiMjrxeg/y/i3pTcWk7cSVlDTCL2+E6Ef0LuIntXMK/X/HXZ0n2yFl9DJ4jV1gVSq/PfLTvGeCq1cvRfuTlu/lJIkfiyGfp22Y8WOGicvgYB1yQ2k782UlK4l/edqwPf/vXjy2Rxv02oXXOp/vLRdGCNd3GQhxL62xeAP4bOhla6f2cS4LRinmCh2M2hhOl5fKSj15+DKKJ2VKTzhrFUi9EkvPoAfhxleox97M/z+1pV/Z353D/6Jc84RMc0r/eAVe7mVlTX9kbaCf47s4+JMD8bqhXqZRt2z8u/8QvkInhLLeWa/eJWO76wobXTSdcZZybTRvgU+HiRk3XOAPKmvO2ipraX5LRnpI8R+t+Xgz+sdhIrR/+c48WL0vz9OwopP2pkO9xujW9V0mb43NSDN0CfF/ugdUnhal7SFla6eVT5aDjvnbc5KIP8vD60fJM116EGGfholWOOsXaH6diZnRwk32WcWyHzXQ9sLjXTc3P7vLyHEs7H14F8TpmOl6yfFxHUzEGRuJqwbshrhs+uEfrfRPhXcQAx/YN4AzY30b3zzcxP0g26jjNxGxMzTt51AXd+40gW0Ks3cZn9NbEQPMnR3iq5DzoJVFe3boU7GM0vMJwcIH7KP7skxFg4xvPLrRQixn2w9+Du6fpK3EmZAKA79XK/LZzte6aP3BECS4f/dzrgfmJ1d7T/3eltKynbUrzOsrOmgF3NNOvpKLF2i8Ffx3+UyC6v9994j/pKyIjOQLzH3uTWKKZ+k2x9hYkdOkBreE1HGHyyx+FPfyvBTSBEb2aAbSgixJ20r+PN6ZHUkz+04Y4/HmfzN/N8d7/JZodP1f8yr//RXg9sYopkhcacYuAzaTpRfj++UzO0EK2sKBK0r/zbaXi7WyDGdWitKp2w3hjUCx9e7eavhe3+KeHGY518TdH209SPkRj92mfh7qzen84uLJeVCiP1he8G/pp2OU8X/SRI/F7eC8QZdPttVHP6YizGwxWGf+f+cp+++9T9Huom+4qiwUx7HOP9J8Wayj+5LAevfOpHQ6lV86vM+ZpdX/ndF/j+9xFbOHJ10V/BrKvypdWMcyP1ngAmXdrejsLy08m/jhXXuVAsh9qztBX+gfSXIF0jctq4ytRCRlZPCbvBy+eMwGgUSNxKshqKNFR7PMnahlcZ/WjdF8RL9z+WVJ2J3TCHP7PVuWr3nSVoX7t6LcS7bbp4aF/toL3ah/DlIW6CHxB/WL4BCntmRCL6V7dQIf9lH8dSxrqYuuooP1hUm6P33VrrHEnT8zUPLuUGSv+etbSiQuXWeyBfFs1GQjrdXh6EKIfYR5/seNu1JXIUc73zR3hx31jJV8B4c74dzK9VX30MTUuVvkZlWXUbpspt+t0+NV7VPLNobVaqS998QVit7WME+Acr79rgqX5NS6sGQCurl9UsnXYW/Wf8dRPZ9V0opNRFWWnF5o0tNuyzjPhX3bVyFy8rsk67C11z3SAixD2z7yp+adrpKrv50wm+vMWrnoA/vJoYdGvVW33WNtnJjeVWAvqudtvZ0Gm3d9o2+Na7lazT0wwHaL8aZ+3/zxM+UX7l6D2+i/3+dfdLqfQTejhK/t8T8tTDlawIOdTGVnWfy4zD+Jr1kPzXdR+C9AaYfLjL+j/JtMg6utqit3IS1nOmio1icSzBpjSaqfN/CxO+N0nXMh25vu07Hd6qPyYeLjMtVvxD71gGllHLOFEII8Xzb/pW/EEKIfUeCvxBCVCEJ/kIIUYUk+AshRBWS4C+EEFVIgr8QQlQhCf5CCFGFJPgLIUQVkuAvhBBVSIK/EEJUIQn+QghRhST4P1Nphs9FiHyUYK1ULtuz2+0LIfarrQf/P2J0hyNEbFP3lRix60ky60Wa5QyxCxEi53oYu1+eyhyA5VmGz0Xo+N/Z0vn5BL3hCB1fF5Oj7HezJL6dYOJ6ktVEjTtpt9sXQuxbznc8V2qj9+V7Tw2o6SXnUo7332shFXd7JXyxTlNUrb7d3zb/VPnb/fcnKxeCcz93zG63L4TYr7Z+5W8xE4ebycMXH84xdbWLgA6Z2z20NUYYe+xcwqRpGhQSRC8lnUVCCCF22baD/yoN/aCP4DtDTD+aIXoIyE/QeW7Mtb+58e0uQhrkRnro/9NZKoQQYjftYPC3qfEzkBoiABRu9zHsEtwzj9sY+sgHzNJ3wf0EsVWzH7XgaWih+0dnCUCG4VAzHm83Jb85CmliF9poafDgafDg8bYSuZIgV5b8PEWPz0PzhSQs50hcOb2yTLO/g9gfzvqWP2J0+JvNthuaabswQaasbbsC6ZFu2nzW9jQ00xruJ7HgrGfZbPuFNGOXVrfd0+ChJbTGfZhfemhpaKb7DhR+6afNa9ZvvfK83HsRogo5+4EqVezzL8sdu2JRDR0z+/YDX9o69u399k8mVXsdCgzVmbQtut0+/2sh856CW71iG0f71EpW3EdxFaqz7lUcC6vwmbAKHNLMNg5fVjNP7A1Y/egno+ryYRRoSq/XlW4tT11IxR/Z6yul7q7e59B0Xen1VtuHvO77qRZV/JRVpymgwmfCKnzMa+bkrfGpy3dLKm++fdv+UudTgTNB5TesZdxy81rHM/i+tZ4aTenaGsdXCLEv7GLwX61jvD+zOtMRwBe/DJhB52ifmnfWcQatSoP/k3EV1lAQVEOOOFbcptUT0rzqO2oG8VBJ0FtSU/8wzKD3lX2+LWG9HlajD4vzVwO296J9q+dV3xGz/eBVWxL2B0MqWAzAjv2c/8RvBvJT8ZKk70s/dCoDFCeGbPM3235xf1Hei7bPRSm1+EOneXydN+KLJ1NQ2okhNW+dDJfcbugLIfaFpxL8S4J1WQCfU9EmR/DdbvBXSo2/aQbi0sA9rboMx0mh2OYxe0B1lJ0ctc20gr8WVKPOK/xkp9Kd25e+7L4vSin1cEAFysqKxyNQduJaLQuq0eKvkc22X9ynI7aTrU38lBnkS36tFYN/XViNl22TEGI/2p0+fwf9oOGcZeNj4Mt2NAokLvWQXK+fehPCb4fRgOR38dX7Cb/EGc8BJ8J06Na8u7NkAL02y/hIjJh9SuXRAB6kKevdNvy01TvmNeh4AB7MrdYvtn8yhK+kMnCw0axvtzzN7J9AfS3Z7xzbMzJNvg4gQ/p3q/4m28//OE0GME6G8DrKAEKnAgCk7804i/C+10e4eNyEEPvargb/zIL5aJGnvtFZVOr1YQaOAbkYPZ9lnKVb83onHfXAjxPEreifujZODgj9o4tiDEunzfXl7/Rz/t3zjilmBvH68iC6ruXVm6a54jHQNzgGRb+nyQA8TtJftj3nid0H0Gm0dmCz7Wcf5gCordGcRQDourmn+QWznhDi+bSLwT9F4scCoBM8WXZN6qDT9XUULzD7cQ8Th3yuV6WbE6TzTQNIMnE9D6SI38yBFqbz7Gotj8eMot6Lc9bzCi7T3Sjr/XZZj2GYwXTJdkJYl+4xT0xNUeac27EyzRA9aFbfdPs1zhkOVjvr/1oTQux3uxb88//pJZYDjA46TzhLXRwZYOisBoUJev6VNrtbtilwLoIBJMfi5K0uH+1MJ2FbADSO+NCAzH3HqyR2Sr2BBuTuTpcPZ11eoixkH/Tj04A/08xW0gW2yfZ9fj+ss7/JlNnd43up1VkkhHiO7ELwL5AeieD7Z5ICGu1XzfH+lQh9OUAAyPzvcOkY/K16pYuOJuDnOF1fjZNDp+OdUGmdUxFCGnB7iOE1nkbeluNttAH8HCt93mE5w/BrjmcNAAgReV0DEgx9XRbOy222/ZNBggC3e+n51VH2OEb/t3kgSMfb0rkvxPNs28F/5svVF7u96m/GU1tLy7sT5DBov5Eh/rpziXXUdxG76IVCoeyKdWt8dP3TB6QY+zbn/iukJszAv/xAiu7GZiJXYsRuJUiMxBi8FKG18QCtn22j/1vv4vI7BjBLr7+N7i9ixL7opq2hme67OobLT5zwp734gdT/eGh+q5/YSILErRixL3qI+Bs58PdBVrZos+3rXQx96AUyDAaaOX1p0LyZfCVCc+N5kgWN0LVxuiT2C/F8cw7/qdTcx76Vsd+rk6b0Jr8KX4yrmbWGBBaHGp4Zd5aYnsxYD0+ZQyxLmtnEUM8VmT7lt7bPeG/aWbpi/puw8mrO/UFph8MqnrHXHFdh5/DJouKwy0OXS8ueZNX426UvwtMOtavxh3Pq8qE12nowqsLFB83sU51Pha85Bmluuv0lNXfVZX91n+q6YXtWoOhGWFH2/IIQYj87oJRSzhNCNSs8zpEvYL2rSN+Rew8rCnlyjwug6Rj1FbZcXAbQ6g309RbbQvv5XI7CMptaRgix/0nwF0KIKrTtPn8hhBD7z6av/D/44AP+7//9v87Zoko9fvyY/+//+/+cs4UQe9yWgv/jx7sxJlLsR//3//5fCf5C7EObDv5CCCH2P+nzF0KIKiTBXwghqpAEfyGEqEIS/IUQogpJ8BdCiCokwV8IIaqQBH8hhKhCVRb88yQ+ihAJD5JyFgkhRBXZevD/I0Z3OELHpTHSa718/9dhOsIdDDuThjwzWZLXJ5i4mTTz5AohRJXacvBPX+1n+OYEY5910BoeK08hCKRvDDJ2c4zBG2lnkRBCiGdoy8HfpKFpULgdpedHZ5kQQoi9apvBv5GO/w6hkSP2Qb90pQghxD6xzeCfYfHvQ/QeAX7ro/tbt86ftRRIX+/htM+Dp8GafKfpuZ4uy9+bGzlNc8OrDC5A4X6MDn+zWd/bSvd3xWy2eZJXTtNitdUS6ie57stHC6RHOmj1rq67/3Z5rl77unPfdVjtN9PxXem+5m73EyluV4OHluPdxO4790QIIfaI0qyOlZu7aOaMDV1TSn3frjRQGJ1q6kl5nfLcr4sqfsrKT1ujKd+xsAoeNcw2QOln4iW5e812vKrzYljpoKjTlV5fzG+rqfC1KdX3smbmEK7XlV7MTXsoqmZs26PUnIo2oSCgQmd0M9etbm8L5f+0ND/u6rpD5vZputJqSvdpxtpPdJ8Kngmr8Em/MmpQoKvwtbWSGQshxLOzM8FfLaqhY1bw/GQ1eK4V/Oc/8bsH50dTqrPJDOghW9AstgMo38VptWTNX/wmuHLCoC6ohh5YBU9mVPSQOT98Y6UZW/BHUeNT0VSxJaUWrxWDe1iNu5zAAOV9Z8o6KS2ppeKixROfc18eDqgAKIwutXbaeCGEeDZ2KPgrpe5FlRcUWkjFrbjtHvyLAdin+jK22UXXQmawPTa0cvW/0s77M6V1n4yqICjwqujd0qLFLwPrrLu8vv0EZj9hrAT/Q5eV8/eLUkrFT5lX+J1JZ0mxzHBZlxBCPFvb7PO3OTLA0FkNCgmil5LO0lX5JNN/AgdDhJqchcDrIQIAv88y4yjy+f2lM2ra8DcB+Gh9ubRI1z2lM0qU1wedYMALwOxs+dDU0L/68DlnMsvMPYBG+CNGbKR0mlvWgRzp8uaEEOKZ2rngD4S+HCAA5EZ66P/TWWpZyJADqAHNWQage/AAPM6a9Z6FZeeMtaRJL5j/jb17nvOOqf9OHtDQDedyQgjxbO1o8Ke+i9hFLzBL36UJvD7zSrpEjWvIX7W8ZI72qW9k78dMHV0DCBE3u9BcpiXiJ53LCSHEs7WzwR/wfTJEex0UvuuhN+0S6A+34gf4M82s2xX2Tymzu+ewn1Zn2Y4psOSy7tn75pMK/r+Xd/C4a6XlMECamfvOMiGE2Lt2PPhTE2L4kwCQYfh/3fr+gwRPACTo/WjWUZYn9u84eSDY3oHuKN05Sc6/1Ft68vmzn4HbmNtX8ZW6QXvYB2SIf+m2r0IIsTftfPAH9P+OEW2CQsHtISedri8v4wUyn7XSHOphcCRGbKSfiNfD+TsFtFNxxt/bvdCPpqP/0U9rQxvdX8SIXemg5aVeZgHvxQG6NrFq74cDtNdBbuRVPIFuBkfGSNwaIzbST/fxZmo9HchpQQix5ziH/1SqOASydBy9zd3LyldjDp0MflP+oNPSvVEVPrT6cJU56cr33rjKljyYpdTch45hpasl1tDNsBp3FllDRp1DPS8fQtEUVTMPRlW4OObfWnfgYnEcv22JNddt82hKRY8Zjn1BoRkq8GF5m0II8awdUEop5wnhqcrnyP2FOSrmoO4+AmgX5XM5CsugGQZ6jbN0k5bz5HLWr506A2MTvyCEEOJpevbBXwghxFO3K33+Qggh9jYJ/kIIUYUk+AshRBWS4C+EEFVIgr8QQlQhCf5CCFGFJPgLIUQVkuAvhBBVSIK/EEJUIQn+QghRhfZW8L8/TEc4Qvf17eTwypP4KEIkPEjKWSSEEAL2XPCfTTB2c4LE7KKzZBOyJK9PMHEziZmaRQghhNPeCv5CCCGeCgn+QghRhST4CyFEFdpe8F9IMXiuleYGD54GD83+CP23XW7WFtLELrTRYtXzeFuJXEmQc0miXi5Fj89D8xsxylpeiHHa66Hlg8pu7eZ+HqT7eIu5DQ0ePA0ttF2IkSnbDmudF5JQSNF/vNms//d+0s6qQgixD209+P/aS4u3jZ5vZ8nWeGk93Mji7xP0hhp59ev8ar3HY5xuaOH81ykKh4MEjwfx1aSZ+NdpGp1J1F1lSP+eJ3MvTdlt4Hya9J950r9vfGs391krjcd7GP51Ea8/SPC4D89faVJfn6f57/2Om8PWOv9I0PNSG70/ZygsF8j/Oo0z5bwQQuxHWwz+aXre7Ce9rBG6tshSdoapn+ZY/H9ZJt/zo63kYszQf7KDxF9mvfmfxhmfGGf6wSJT/zDg9356Rmwnil2kHQ7RdXWOpaUsMz+MMz4xzfz/myHaBPwWY/i+cwngziCDuSBDDxRLi0uopXHanXWEEGIf2lrw/2WY+J/AkV6G3rYlqq0xCH01w+Q/rHn3h4n9BhwbIG6vh0bwgw68QPLmuG3+7tFf72PoHV9pjuAaPx1nDPNK3/WSXiP8zThdh4r/+7QzDAshxO7YUvDP350hBxgnQ3idhXZ3Z8kAem2W8ZEYMfuUypuB+EH66fej53PkFswp+5ez0Kapi743JQu7EOL5s6Xgn31o3nqtrVn/SjidNnvS83f6Of/ueccUM4N+fSMe54K7okDqi9M01x7ggKeRxhfM6fRI2W1kIYR47m0p+FfK4zGvmr0X51BKuU93oxjOBXdB+qMW2j5IkD3SRfxuluxDc5p852msXQgh9pYtBX/f3/0AZO67dpSvMI6Yfewb1avIX3myznkFWHLOc5VkcCQDBBlKDdH+soFx0Jy8eq2zshBCPPe2FPw5GSQIcHuI4celRfk7/fTfskbwnIoQ0tzrVc6Prwl4PMnYj7bZj5OcPztYPvbfVZ5Ft/UvZ0ikyk4pQgjx3Nta8Ne7GLjoBVJ0NzYTuRIjNjJIT6gZz2u9xIoBtSbMwL/8pfVuJUiMxBi8FKG18QCtn20Uvn10nvUCOWJvtNL9RYzYlQ5avK8Sw7v+DecVQYInAJJ0v9ZP8vcc6R8HibzYTM/PBWdlIYR4/qktW1RT7/mVBoqVSVPeN0fV/JPSmvPfhJVXs9czJ+1wWMUztoo3wgpQ3otztplKqSdZNf62t2RZ41ifml6KqxAoTsVtlefU5UMoCCn7XPVoSnUd1Ura0F+JqqkvzXWGrtkrj6swKJqiyrElQgjxXDiglFLOE8KmLOfJ5cyrZ80w0GucFVYVHufIFwA09IN66Zj7SuRz5P4C6gyMrY7A3Ik2hBBin9t+8BdCCLHvbK3PXwghxL4mwV8IIaqQBH8hhKhCEvyFEKIKSfAXQogqJMFfCCGqkAR/IYSoQhL8hRCiCknwF0KIKiTBXwghqpAEfyGEqEIS/EvkSXwUIRIeJOUsEkKI50j1Bv/8BB2NtdQ2niexXJyZJXl9gombSczsw0II8Xyq3uCfmyGVK1DIzTC7UT4ZIYR4zlRv8D/cy1QyzuRskssHnYVCCPF8q97gj4b3RDuho5LRRQhRfbYX/AtpYhfaaGnw4Gnw4PG2ErmSILfSh16JFD0+D80XkrCcI3Hl9Ep7LaFBUsUUu3/E6PA3r6yn4z/uvfK5nwfpPt5i1mvw4Glooe1CjEzZNqXo9TfT/EaswiTwQgjxHHHmdazYo7gK1Zm5cL3Hwip8JqwCh6wcuYcvqxlHHt+1WXl4T0bV5cNmHmC9Xld6MefvoctqaqJdGaCo05VeX8zDq6nQtcWSlrKf+s0yzVD+k2EVPhNYzR18tE/Nl9S21luSp3dORZtc8v8KIcRzZovBf171HXULwEtq6h+GAlTwq9LAvDYrCINCD6vRh9bsJzNWILZOMO9MqWKLi9dCZuL4Q5dLEqwvfn9ZdV2dU0u2eavteFX0nr1Agr8Qonptrdvn/jCx34BjA8TftveZawQ/6MALJG+O2+ZXQAsy+mCczuLN1xo/HWcMs+jkKDNXgxTXpL8dpaMe+GOW2ZUGQH+9j6F3fKWJ4VfayZC2VxZCiCq2teB/d5YMoNdmGR+JEbNPqbwZfB+kSQPkZ5lw1hmZYDbvaNPw01ZfOsvvbwWg8WjbSuA3NaLXlcwol8+RWzCn7F/OQiGEqHLOnwKVmLvoXemOWXN6eUBllVLqXlR5nWVoqv37Ymtu3S+WayGzy+eis2St7pklNf15aLWf3zGFrtnruq13rXaFEOL5sqUrf4/HvA73XpzDum9QPt2NYgAcGWAmmyX7sHSKve5sdfvSH7XQ9kGC7JEu4ndX1zX5jtl9JIQQwrSl4G8cMfvVM/cr60TXDQPjoH3SS/vld0SSwZEMEGQoNUT7y6vr8+q1zspCCFHVthT8ORUhpAG3hxh+7Cx8VvIsum3LcoZEKuucK4QQVW1rwb8mzMC//ECK7sZmIldixG4lSIzEGLwUobXxAK2fPe1Hp4IETwAk6X6tn+TvOdI/DhJ5sZmen4tPigkhhGDLwR/wfjjD/DdhvDUZJv51nvNvnOb0u+fp+WyCtB6m581K+9m1jbuAapwz3Oh03Zii66hG4cdeXvU10hLsIWlEmfoy7Ky85nq1itYlhBD72wGllHLO3KzC4xz5AoCGviv9+ZuUz5H7C6gzMOTVPUIIUWZHgr8QQoj9ZcvdPkIIIfYvCf5CCFGFJPgLIUQVkuAvhBBVSIK/EEJUIQn+QghRhST4CyFEFZLgL4QQVUiCvxBCVCEJ/kIIUYUk+D9F+Vu9RMIdDN93lmzC/WE6whG6rz/tt6bujvTXHUTCvSScaT13yG63X6mJc7XU1nYw4SyoSIbBvx/ggLenJGf1vpAbpu2/DuA5l3CWiGds88E/n6A3HCFyaYL1v095Eh9F9sQXb6/I/jTGxM0xEtv5Bs8mGLs5QWJ20VmyL83eMo9JcsFZsjN2u/11PU6RvG++Ttxbr1OoqzVzUS9nSP2yiS/FrV56fwXfP7vwO8uKlnMkrnQQCXcz9iz2dS1GFz1nNPLfDjK8iV0Wu2/zwV/XyP00wcRnXfT+4iy0yccZ/PcEE7czOLKv757HKcZGYiT+cBYI8fQlPwjy6kuNtF1JgVYLdTq19wd5taGZthOdTCw7l3CTZ/iLMQoE6Ppvr7MQgMIv/bQ1NHL6X2NM3Ewws8eCbPjtMBpJhv834ywSz9Dmgz9BOt80gBzj11LOwhX56xMkAf3tTkLOwt1yu4+Od8/TfTXtLBHiqQt+kmTg7UbS/2qj7X+z8DhG6KUepuvDDCQGCFWSOyIfZ+JH4FgHHc6LqOUMsbeaqQ30kiKAv8lRvle83kFYg/RXg6wdMcTTtoXgD4FzEQwgdzO+xoeZJ/5dEtCJnA06C4WoDgcDRL9Jkvg4hL5cgL8KaK/3MXknTvSEt6K8F8WLKH8oUv4D+vdh+r9bJHBxkuyjaXp8zgp7RYjTJ4BcgvHt3O8SO2pLwZ9XuuhoAnLjxN26fopXK0YHnSechQXSI920+Tx4Gjx4GpppDfeTKOunTNHj89B8IWn1Z56mpcFcptnfQczetVO8D/HlDADZm91EwhEi4Qi9t2y/gQtpxi5FaPUW1+2h2R+h/47b7+QC6ZEOW91mWs/FSFeUETJP0ra9Hl+EwY36eAtpYhfaVpfxthK5kiBXUdeAQ26MiNdDc2gY1x/aP3bT0uDh1S8cN40XEvSHW2le2e42ukfSlO5yjtgbzXiCg+Scx8h3eo1jaV2lnlttu/l4NxMbdc9VtD2WLbSf+3mQDn/zyt+Cx9tKxxcpl2Nu+1sspOg/bi3z937W+42Z/qyNxtpG2j5OEzzlh8Mhgg96edVbS6O/h+RfziXKTf80Dei0vuKSGe9wLzOLi0x/GsKo5FfEjtjE99ImeNwPZEjeej4GKjwX1BbNXfQqQOnvTDmL1OJXQQUo471pZ4mKn9IUoGgKqPCZsAof8yoNFDU+dfmuvW5chUBxMqouH0aBpvR6Xel1mMvXhVT8kVX14YAK2ss03axbr6vg51mr0pRqt8q1w+a6g0cNsz6aav/etmql1NyH5v45tzN0rbReOds+1ljbrJnr8B7SFW5tPIqrkLVt3mNhFT4TVoFDVhuHL6uZJ7a610JmvYtztplOcyrahAKvit5zlikVP+Wyz3ejygsKdOU7GVbhM0HlN8xt0s/E1eJKRavtpk4VPWPuj1avK123thevipZ8jkqpJzMqeqj0s9FqzLretbaz4u3ZWvsz1t8vaMo4GlThYz5rGZdjbvtbLK5H0zUFIRW3V3NY/DKgtMNdavKh9X1piqo5taimLvqVfrRPzTsXKFP8HANqqGSH3Zmfa/m+7qxNfC/tkp1KB8WZcWeJeEa2HPxVpk/5QFHfqUrD/6IaOuH+Rzj/id/84pwq/fIu/dCpDFCcGLLNt/7IQKGH1ejD4vzV4FoWANcNjHNq6L0+NbnSjmnxm6B58jll/xpPqnbN2jd7EFiaV/Nuf9h2E2GzvaYuNb1UnLmopt4pBhtn8J9XfUfNL1HoWslRUVP/ME9Owa9s89fdx1XzH/sUbifgJ9ZxtX9uTyatE6MjcD/JqoFjKDBUV6o4sxiQzBN2NLWyk6sBteRYrm6LdnJUZYvH88m8GjphO2HY/1Y2tT1baP/7dvMzcgaqJ/Nq4Jjb35btb7EuqIYeWLOXVvd9I5NnNQVhtbnQZ61Xa1eTziIXTzX4b+Z7qZRS6cvmybwpqlxKxTOw9eCv5lXfERToqjNpm704pIKuH/J6VzHFsqAaXQm2xT/8oBp1BtziVYQjyFQaGEs8GXXZXluALLkC3Nj4GbcAr5RSS2rybZcr/3vWFe4x+4nPUXZydHVepftYPDkbXcoe/l1/lVltuv2KK5YZ789YM2y/KpxX+ItDKlB2LOfU5UNrBKUnWTXwikvZJrdns+0Xf/mEJ+yVLcVjXnJRUwx4mgrfKPuUKjKfHFADn09VcLVvs8mA+VSD/2a+l0qVfqecReKZ2FqfPwBeOtv9QJ7x68mVucUbVL5/dlFy/2l5mtk/gfpast/FiI3Yp2nydQAZ0r/bFwIMP231jnkNOh6AB3Pr9rmurUB+IUduIUcu59ZHHaLzjAaPY7z6YoTBHzPu/cxl0kzPAgQIve4s0/AaHudMuDtLBtBrs4yXHJMYsVTevCn4IL35/WzqpOOo875M8Ua8QeRcYKXq7Kx5r6RxOeP4XGLEHhTQgdzvzi3w0fqyY5buMT+XPzO27Z1l9g+gPkjoiL0yUGPQ6HJINrc9m20/SfIuQJvLZwQcCRGsBx7PkXb+aTR10fdm2W3XinhPRIm+H8R9sOYaliv7q3smtvq9fJxFev33hm0EfzDe6yQA5G+OYYb/YnDx0fG248/897R58/Fxkv53z3PeMcXuA+g0bua7tdkvx8IE3f5GDhyoxfNCI40vNNL4Qo+17XY64RtzjL7phT8n6Ak2U1vbTGStm40rMmRzAB48Fe5HOm3eks3f6S87JuffjZlfovpG80u1KQZd/wyUDskt3ohv6qDrldWa6d/Nr2P6P871n+f8lSR5QKt3ueG4psLqcVrIkAWo02ksqbO2TW3PptvPkX0MoFHrepO0Eb0OIEembBCCqMhmv5fimdhW8EfvoOMY8DhO7JYtuBztoNM55lj3mEPVmqLMmd1NLtMM0YOO5XZKfoKIL8LwbxD+fIq5h1myD7NkHw7gOhi1xkvnjXnU4gzxiyG8yxkm3m2h5aM1r2mARhrrAQoslY0YceexzhLei3Mux8Oa7kbZTOgt0t/uIGgbkrvWrzJdNwcdhq65rNualq65HqWNGYZ54lpmgxPnqk1tz6bb1zYYYlmAZQAD7279LVaqZv0t3ZfqG7f0tyx23vaCPzod7UGgwMT1xOqY5Lc6yz/gg358GvBnmtkKA+NOyn87wMRfYLyfYPz9IL6DBsZBA+Ng4/rBQPfT/ukk85kBAkDmunU17qoRTz3ADKmfnGVQWF5yzsI44kMDMve3886HNegdhE8AuTixH4u/yvx0/KP0V1nrS+apIH1v7T3bsppGDA1YmGba2Y0CrifJTW3Pptv34TsEkGbGbcx5fprpBaC+BV+Fv952zeEW8ySdy7oP2d1Pfre6gir+hSZ22zaDP+hnwwSBws1hOr9LAgE63ysL/UCIyOsakGDoa5dv6Q7KLpR/VbJmf0yZ/J1keTBfzpN3XkYaOrWOWeUMggHD7P4aKX2RVf7OeSLOcfUApyKENOD2EMOPnYXbpdP1j5B5X+brLutJ0U66HFe0xtkIPiDz7SDJsmC5XW20BQBSxL4u/Vwy//sq3XdKZsGmt2ez7fs4fdIAMgxfGit7P9Xsx+ZTqMabne6/CJ8qH76DQCFDxrmhW5D/JUbPpf6y15+sNT9zu5+eSzFSO/F3+cDqnvO3ld4LFM+O8w7wVpijDKypZLimQ6ZP+a163jf71OjVSTX5/aga/TyqwkcNxcsDqjgqf2V0gNtIh+KIDGfZw2L7hgp/PKoGLoZV51WrxVSXOZwUr2ofm1HZhzMq/l7AHJ3gbGsirKgxlP/tPjV5N6vmkqOq6+V1hrHZPbJGvKzs46jqe9McAmkcNIduOkcCFYfAUuNV4Y9H1ej3k2ryqrn9fgPl/3T1qFQ82qfoybgKa6ufT8mwURtzKCIKPaC6Ph9V8e8nVfzqqOp7L6C8mq7afyjWLI72cRvjXhwV4yhLWkN50VXgvQE1enVAdb2im2PsD2quI1Qq354ttL84rsLWuHT9SLvquzpqWwbFoaj7OH/n39tTYI4eK38ORSml1JMp1XfGfC4kfMb8WwFNeU8U511Wkysfd3FUFEo7ax84utb8cRW2/mb8n9j+/tY7Fmt9L5VSWetvvLQt8SztSPBfGdu+TnBZ8WBUhYsPMNmnOp8KX7MPhLP++Fz+kFaGwB26XFY286E55rs42QPn/JchZRQf5MEKtt+Mmw/u2NezOKUuHys+AFacNOV9e3x1HPk6llJ9KqDb12OowMfTaulGWOES/JVSav6bsPLagnRx0g6HVTxjq2i1UXHwtwdSgi7DbIsW1dTFQOnxsfbbOHZZTZUFEbfgXwwY5ePZszfaldfetuZV7Tey1sN05cG/8u0xbbr9h5MqWvYZo7ynBmzPZxSt87e4yxa/DKz9eRe/B2tOXnU5XaxcfP7G2dZa86dVl/VQXenf6zrHYp3v5ehJc3vKPgfxzBxQSinnr4GnopAn99jsW9HqDax7fDuj2HadgVHWb1sgv5CngIZ+UF+/v9++jYaB7jo6ZG35XI7C8uaWLTzOWV1OFWzfLiluNzUaRvkB3IZNHHubyrdnC+1v8zPedflh2jzdpI72kZ29XH4vbT9YniDytwgTehfT2SFWBxmLZ+nZBX8hRAXyDAc9dP/ooy8zx2XnKLr94GaE2vAEjRfnmP9Uevz3im3f8BVC7Cadrvfb0UgT/7Z8IMPel2f4fycoECT6kQT+vUSCvxB73et99B3TyU7E9mEaxzgT93S870TpWq/HTjx10u0jhBBVSK78hRCiCknwF0KIKiTBXwghqpAEfyGEqEIS/IUQogpJ8BdCiCokwV8IIaqQBH8hhKhCEvyFEKIKyRO+Fcrf6qXzPxmCH8fpciYKr1p5kle6GJ710PZBL9Fjbu+czDNxqZM4HcQ+DZupPFcUSF/vpe8/SVIPNfwnIvR8FCVQQfrE/J1+ur6ecU/deLiT2Cchx7qEECUcr3gWa5i7aCZkcXsX/9YtqumxUTWasOcx2E+KyVvWe1f7Ggle1KKKnzLzDGiGXwWOGmZOiBq/GrDnL1hDSQIh5+T2rvmd9mBSjV6Nq+lHzgIh9gfp9nmmEvS1n+f8heHyVJL7iaahkWHwveGytIhrutVF5+0C2slRstkZpmezZL8Joi3P0vtRaQrMtRl0JrJkHzqmu327niowfbWb8+920HfbWSLE/iDBX2zfiS66moCfe+i65Sx0l/4pRQEIvt250j2j/8PMm1tIueRVdlWL/oKBcdAx1VeUxkWIqibBfzcsJOgPt9Lc4MHT4MHja6N7JG3rn86T+ChCJDzADEBugu5whEg4QuSjxMrVc27kNM0NrzK4ALnvOmhp8OBpaKbju2KNAunrPUT8zeZ6Gjx4vK1EriQ3vgL/tZeWBg8t/5N0lgCQ+fo0zQ0t9PziLHHxQKPz8zAaBcb+p6fCwP305H4epPt4y+oxamih7UKMzBrJ4Qv3x+gJrdZvOd5N7L716d0fpiMcoftmFoCZL63PLdzB8H2rgV96aGlo5vRIbrVRi/mZOo9rih6fh+YLSSik6D9ufZ5/7189loU0Y5citHqL++Ch2R+h/86Gn7QQ7pz9QMJdxX3+d60k1ujKdzKswmeCVmJtlH4mbiW3z6qBE7rS64u5dTWl1+vmdGI1ib25Tq/qvBgy+8M1XWk1q7lWp962lq/zqcCZsAqf9K/kvC1Nxu3iSbEv3i2vbzFJu1/1PXSW2dmTec+rvqPmugNf2ht07/MvJvT2fWy735HpUz5QHBuyjtPazD7/te4zrMp+aq4HzVD+k2EVPhNYzZV8tE8577YsXgsr3bp3oB0OqOBRr9JqUGCorpRS6ocu5a3XlV5so8763Oq9qquYVP5aSFGWE9fk/ndkHaOTUTOfNChN12zHbEq1WwnntcMBFT4TVsGjxfzDayR3F2IDEvwr5P6ldXgyaX1JvSp61z4/qwaO2QLICnvwLFdcJ6C870xZAXFJLVkJxue+6lJ9idUE9UoppR6NqqBmBdsNks2Pv2mePIJfOUJtqksZFQVhx/YnO83l6trV5Mq63YO/ejSkAqCo86uusRmVvRtXXS9rFQezSoP/4veXVdfVOVWSk/3JjHVycyy/GFchzeXzW5pTA6f8Kmr77Nb9e9hq8AdFXVANPbBmFz9oNaeG3utTk44T8eI3QfOi4FTprXQhKiHBv0LuX1oH60uvvzPlLFkpM96fsc2sMPgfuuxavpbRky6Bzc337WbwcAT56ffMq8qyk0IZ5/avjuBZDXxrBH+l1OIPURXQraAHihpDhb50Xou7W2+0j/a2y/F3mHnf3Ef757n4VdBc/s1xe1VX6/49bDn4ayp8Y6NjbvNkVAXX+fsRYj3S57+DZmdnAGhczhAbiZVODwroQO73zfeIh/618eiVwuMcuQVzyq/Rl13m9W46DeDnGMMLxZkp4jdzQIjOdzY7Ul6n/ate/EDms06GHzvLS+knB5heVCw9ypLNLqKeZJn8b6+z2jo0vCfChM+UTp0n12gjv3qMsn85C2HG+vzaToWdRU9HUxd9b250zAvkrX3I5aS/X2ydBP8dlP7dvMGX/s95zr/rmKybsFq924NQW7ScY+JCK43/dYDahkYaXzCnnh+dFdcSoOOMAcwS/4+VHPyXOOM50N7spL3GWb8CTZcZeMcwb2L+z3pDNleDWL4ALBdWT16uT265aST85TjjE6XT0Nv24F8g9cVpmmsPcMCzeoxcb8YumMFU28p+77aFCbr9jRw4UIvH2ofGF3pwv10vxMYk+O8gXTeHGIauKawutbJp6VrQudgW5Zl4y0vk61l4fYCp9Oo494ETzrprC1zqxgekb4yRAVLXxsmhETq79avf4KeDhDQoXO+h/08fPrcndn/vo3UliJVOrR9v/tfRWtIftdD2QYLskS7id1eP0eQ7O3gS3m35CSK+CMO/QfjzKeZWnmkYYKf+mkT1keC/g1pfMjtn0vd2LnitKR9n4GYBDkZJTEQJHl4d5964mWHuTZ10HAXuxxi+nyT2XQ60MJ1nnBU3QW9n6F9+IE3fhTh5tyvpw33MZF0e0HqYZebjjTq5KpVkcCQDBBlKDdH+8uox8uq1zsr4j5q/GHbq81vMm8NB7QrLS85ZG8p/O8DEX2C8n2D8/SC+lWcaGtnMRy2EnQT/HWScjeADMt8Okqy03x0gl8XqdKlcLkt5xwXwOElyU7HLoOvdIJAh/nYP449Bf7uTkLPaJnkvDtBpQOH2MHHXDQXdcHlA66CB7nay2JI8i273HZYzJFLlgdn3Rghjjc8v85+e1XH8NtkFl53z+/AC+VtjJe3k75wn8oVL/Q1ks+7L5O9U+jCcEOUk+G/S6kM9tumc9XqGpssMnNUgF+PVhja6v4gxdivB2EiM/gttNNd66Lhjby1I21GgMEZnuJ/YFz1E/hlzD+pOh08TMoCFQSLnxphdyDF7vZu2F18l9qez8vr0s2GCQO63WfIYdPxzBzoTaoIMfBpCo0Ch4j78nRYkeAIgSfdr/SR/z5H+cZDIi830/OyyUa/0MXiq9POLjfTT8ZKH5n8OlpxUfccDaMDsJyG6v4jRf+FVeouf7ZFO2g8BuRinA90MjsToP9dC42sxOLTGzeh1FE9KuS8idFyfJbcwy9iFNryvxTZ/0SBEkXP4j3A397GvbEjhyqS1q9VHqhbV1MXAysNWq5OmjGOX1ZRzJN/dy8pnr/uy7SGvD92GBdo8GFIh6wGy4uR9c1SNWw+HbTjU02byrPXA2KaGDVpDFNccirqo4md0s92DUTXtLN6GSsf5q0dTquto8WE6c9JfiaqpL8Pux/bJvBo6VXyAyppqDBW4WHzOosi2b9bn2158yEsppR6Oq/YmRxsfT6slaxho6XrHVXiDYz//Zaj0b6rGq8LfjJsPha2znBBrkVc676J8LkdhGajRMIz1hvAVyC/kKWxYz13hsTlCRqs3sO45b1rmSgvN/0rj+3ieuf+z+avTPS+fI/cXUGdQ0SEu5Mk9LgAa+kF97b51q921jn3xb0AzdqI7y/o72WibhKiABH8BpOhubGM456MvM8flJme5EOJ5I33+Am4OEMsBx6y3cwohnnsS/AWJ7xLm65XbOyT7lRBVQrp9hBCiCsmVvxBCVCEJ/kIIUYUk+AshRBWS4C+EEFVIgr8QQlQhCf5CCFGFJPgLIUQVkuC/T+Rv9RIJRxj8xVkihBCbJw95VeqPGN2XEpS/BR6oC9J3rWvDPLvbkb7UTMtnGULXFJNvO0uFEGJzJPhXqBh83YWIq0nanbN3kAR/IcROkm6fTQp+Xp52MJuN72rgF0KInSbBf5O0+vK0g1t5B78QQjxLEvx3y0KC/nArzQ0ePA0ePL42ukfSuCQPhOUcqS86aPVadb2tRK4kyK2RB7hwP0aHv9ms29DC6StJ8s5KQO7nQbqPt1j1zLptF2Jk1mhXCFFFShN7ibXMXdwgpaLd3ajyggJd+U6GVfhMUPmtdIv6mXhpOsAnM+ryYSs1n2Yo/8mA8ulW2sETQyt1i+sPnAorHRR1utLrdaVZaf28F2fsrarsp35bm2EVPhNQXs1az9E+NV9SWwhRbST4V6ji4P9kUrXXWfll79rnZ9XAMRQYqiu1OrvYrnaq9KSQTXQp/+ujZcEfUL6L02qpWHHlRBNS8Seryy9+f1l1XZ1brafME020ydq2jXLfCiGeaxL8K2QPvmWTLem6shJ06+9MlTZgKzPeL16lT6suAwU+1Zdx1HUort+7smzRoho6VnlAn3nfTE6+4UlMCPFckz7/TTJeDhM+45jCfgyrfHZ2BoDG5QyxkVjp9KCADuR+T5uV8zPM5ICDIUIVpk/0+f2OOTqevwFkyFjNlsnnyC2YU/YvZ6EQoio5zwbCXaXdPvFTLr8MHJP2tvWr4J7VZdMUVXPOhhzWW39xnaVlS2r689BqP79jcmtHCFE95Mp/h+m6BkDomsLqViublq4FnYvtuPRHLbR9kCB7pIv43dVnEibfKf5GEUJUMwn+O6z1JfMlD+l7a/XB2Bxpww/wZ5rZHR1+mWRwJAMEGUoN0f7y6jMJXr3WWVkIUYUk+O8w42wEH5D5dpDkhgE9SPAEQIKhrx0j9R8n6f93wnX8/sbyLD52zgOWMyRSrm8nEkJUGQn+O63pMgNnNcjFeLWhje4vYozdSjA2EqP/QhvNtR467hQr63R9GsULpP7HQ/Nb/cRGYgxeOk1z46v0fjPt/iK5DRVPKkm6X+sn+XuO9I+DRF5spudn18fMhBDVxnkTQLhb74ZruUU1dTGgjBrnjVZNGccuq6mSp7yUWvyhS/kdN2a1Q2E1+mC1ztyHa69//Iy5TPiGbeajKdV11HpYzJr0V6Jq6svwmu0IIaqHvNVzl+VzOQrLQI224TuAVurWGWxQtXL5HLm/drhNIcS+J8FfCCGqkPT5CyFEFZLgL4QQVUiCvxBCVCEJ/kIIUYUk+AshRBWS4C+EEFVIgr8QQlQhCf5CCFGFJPgLIUQVkuAvhBBVSIK/EEJUIQn+wpJm+FyEyEdbzSEAkCfxUYRIeJCUs2jbdrNtIaqPvNhtC/K/jdH3+Tiz92bJ4MUfCNL5bheho7bXZv45RvcH4yye7CP+npndq0w+Qe8/Y2ScdcrmZxi70MN4zr7wGg53EvskxOZf4DnG6QMdJJqizGUGWGOLN5Cmx9vC4J8h4mqSdmfxWgoZkl8PMvzTDOmf8ujH/bSd6qTr7SBeMyvmmm2nr7TS+mka/7/mmL7oXW1TCLE+5zuexTqWplXfK7rjHf229+WfHFLzxbrXQub8U/HSNuyKCdyddcrmj6uwy/pcpwqSwbuLq9C2lldKqTkVbUJBSK2z1yWyN9qVtyzvgTXV+FQ0WUx+4N52MZeBdnbSNnf3zSdG1ejYtHKkZhBi35Bun0otz9LzUhu9v+ShKczo7OJKQvbFB1MMvOklfyexS10SYeKPVpOw2xOxBz8vnZ+d3epV+9OX//Y03rfGyCzrBC5OMr9kJblfWmRmrItAXZqJ2+vnMgt/M8Pk2BRz34ScRbsozfCF85xv7yPhLBJin5DgX6HMZ50M/gE0RZl5ME6nrYtHPxQkemOe7OwAuxWCtPrVJOz2ROzO+fsmYctygq4LCQpoBL/JMP1paLWLR9Pxnx1iOjvH+LsbnMp0P6Gz9u4hIUQlJPhXJMXgl7OARvjzAfw1znKTcdS3hb72Z+CPGB3+ZjwNHjwNzbRdmCCzbrL5AumRbtp8npVlWsP9JBac9SqXHxlk7C/gSC+j/1jjqGk+/IecM0vlrnfQ0tBCzy/OEmAhQX+4leYGa7t9bXSPpCnNYpwj9kYznuAgOQqkRzpo9Rbrn6b/Tunt7/TXHUTC3UzkAGYYCEeIhCNEzg2TLqm588dMiJ0kwb8Sv0+SyAFamM4zzsJ95tceml88z9hvGTNlJFlSX0do9vU6gldRnrGQh5Z3h0kVfASPBwkehvTNXk57W+j91Vm/Msk7SQD87Z1s5zbt4myK9OM06QeOgl97aH7hNL03M2j+IMHjrXjzKYbfbaExPGYb0bRI+l6GfCbNQLiRlnfHSP8FLBfI/56g97VWemz7mL2XIvnTDNkCQI70T0mSPyVJ/pRmtYNqd46ZEDtJgn8l7s6SAXi5jTZn2b6Sof8fg2TQCF7NsrS4yOKjJdSDIYK5jLmPziX+HaTjdgHtVJzFzDTjE+OM/zTP4g+dGMtp+i8Nb2FoaJrpWQCd1lfMexc7ajlBx4lBMniJ3l1k7odxxiemmHmYZeAY5G9G6XX+UvgzxuCtRqKpJZYeLbK4uMTMRS+QYfBfYyvVgl/Ns/homq4mgBCxR4ssPlpkMTNE0KqzO8dMiJ0lwX8z/ubZH906a/k9Ruw+0NTFkHXDGIBDXUylBwjY64J5Y/PqLBBgYKy9ZN+1k1E6moAfJxhft8toPR70Bue8HXB9mLG/QH9nlIGXbfNrDKLvhoAc4zdmbQUAXqKpOQZeWb154P8oah6T9Mwav4rc7PYxE2JnSPCvJtYvGP1kqHxE0MFGPM55y9PM/gnU15L9LkZsxD5Nk68DyJD+3bngszU7OwNA43LGsc0xYg8K6EDud2c499FqP1EA6B7zmPyZqTz479NjJqqPBP/NeDBXeRDYg3ILZq+0R290Frn7PW12BT1O0v/uec47pth9AJ3GLf8cypDZhQOa/t18Gi79n/JtPn8lSd4aJVW5guMm8Tp2/ZgJsTMk+FfiRBt+gD+SJCvtrPX5MAD+3+La/btp93723WIY5rX90nKFoUy3urmaosxZzzSUTzNEDzoX3IiPYMDsXine+N1Jum62Hbrm3NbVaelasYd+h+3aMRNiZ0nwr8TBdiJHMId8flLhpeohrzmK5dckyTX6d1M/TgPgP75Lgcip3kADcneny09Iy0vlV7cH/fg04M80s2vsw1aF3gyhAflvBxkr25jtaX3J7NRK36vws9pJu3jMhNhJEvwr4qXrX2E0IPNZkI7vXF6ys5Cg29/GYHEct95BxwmgMEHPu2ZXQ4lfe+j4OgcE6LTffN1Nx63RSj/HGP7TNn85w/Br3ZRfg4eIvK4BCYa+LtuD7TnTR/QQUEjQebKfVNmZp0D6i1dpfrd8qzZinI3gAzLfDq554t0ZWTJl4/Z38ZgJsYMk+FdIfzPG5DteIMfYW43UvthmPtwTjtDmq+XAC6cZ/s0ewXS6vuzDVwOZ/7yKx9tGx6VBYiP9dL/Wgufv5pBL/6cxuupti+0mvYvL7xjALL3+Nrq/iBH7opu2hma67+oYLk/Jhj/txQ+k/sdD81v9xEYSJG7FiH3RQ8TfyIG/D+JyKqyAj77bQwTroPBrL21/a6T1NeuBqddaaaytpeWDpDWefpOaLjNwVoNcjFcbzP0cu5VgbCRG/4U2mms9dNxxLrQZxW6rWfrOdDM40k/3a70rJ8/dO2ZC7CDny37E+uZvdKmAoTleQqYp76k+NfnQWVsp9XBSRY8Z5S8tMwIqmsg6a5vKXuxWbu6iVwEqdM1ZsoEnWTX+trlscdIOtavxh3Pq8qE1Xuz2YFSFDzn3GUWdT4WvrbzKTilltbGJF7upR9Nq4E2f0pwvdzP8qv3qnFpaqeje9tyHax2HRTV1MaAMZ7toyjh2WU2tvJHNvV1T8YV6YTXuLHoUV2Hdfiza1ZS9vOJjJsSzIa903qpCntzjAtRoGJW8UGc5Ty5nXcbW7YF38BS3X9Mx6l0u+d0Ul7FGy1j3VXdMPpejsLzzbRfbrfiz2gSzbQ39oI7rJu/yMRNiqyT4CyFEFZI+fyGEqEIS/IUQogpJ8BdCiCokwV8IIaqQBH8hhKhCEvyFEKIKSfAXQogqJMFfCCGqkAR/IYSoQhL8hRCiCknwf27lSXwUIRIeJGWfe6uXSDjCoDOB+U76vZ/W2lpa/73F9+nf6sBz4ACnv93KKz2fpRzDxw9wwNNBYldfJS3E9knwr9QfMbqtVzgXp+4rMWLXk2T25GvbsySvTzBxM1mSLSz70xgTNydIPrDN3CGZn1PkloFDBp5CAa3OTBeZ/yVFpuJgmKH/X2PktTCdZ9d6C1qB9Ej37p/ENs2g64MwWn6MwZE9+UchxCrnaz6Fu+IrlNeavKcG1PTq+4e37tG0il8dVZMPnAWbNaeiTeWvKt7yq6A38nBA+UHR1K7GH8ZVGFTom6yafM+nAOX7uMLXGKe6lAFKf6fkBcmrHo6r9qbV477j+7Ftk6pdQ3GkT1W4x0I8E3Llv0mreWGXWHw4x9TVLgI6ZG730NYYYeyxc4lNut1Hx7vn6b66xS6TZ+VgF/GxKCHGiLzQSULTmP6gkdMjiwTeixP/b69zCVepa+Pk0Imcdaa2zJO81IbnhQhjC14CR3f21cw7J0THGQ3uD+2xXyVClJLgv2Ua+kEfwXeGmH40Y6YkzE/QeW6sPGVjVdDwnR1g/FaczqMahUKBPH46v0mQ+LIdf0WxOkX8Zg60EOETzrIEg5+l8Lw5ytz/myd20kxGvxeFTgWBHImJfXYCF1VFgv9OqPEzkBoiABRu95Xmx4WVPuo2nwdPgwdPQzOt4X4S9vyv+QS94QiRL2cAyN40+7Qj4Qi9t2ynk4UUgxfaaGkotuWh5Xg3sT9Wq2zZQoL+cCvNxbZ9bXSPpMsTu7vJJzj/Yi21L3UwrgUJGjrBkx7Gz7Xi+Vszp0cqCIQLSaZzwMtWruESYeKPlpi/0WkmSH8qcsTeaMYTHCRHgfRIB63e4rE5Tf+dNU7zJ9rwA5k7E5KuUexZEvx3Sn0HHccA0kzagzV5xkIeWt4dJlXwETweJHgY0jd7Oe1tofdXq9pfaVI/JUn+boaLwsIMyZ+SJH9KkvrDCr8Lg7S+0EbP17MsHmwleDyITy+Q/nmY8y+20l920tmEX3tofuE0vTczaP4gweOtePMpht9toTFcwa+ZOg0KGsHP58imImi5PNrrUyw+GCVcv4hu+JxLlPtxmllA9/ko/6GgoVeacWzHLJK+lyGfSTMQbqTl3THSfwHLBfK/J+h9rZWe4udndzBAaz3w2wzTzjIh9grnTQDhrpIbpcU6xvszK/PmP/ErQGmn4molbaxSaumHTmWA4sRQyXx1LWTeQL5YlklXqcVJdfm9UTXnuLE887653tJlNnHD98mkaq9DgVdF79rnZ9XAMRQYqitlm7+Rh33KD8r7ocs+rKO4bf5P1shtbOO6HzuueAxR1PhUNLV64GeKAwBc8ywX8wJ7VfSes0yIvUGu/HdB7vdiF0ea4auzQICBsfaSq1ntZJSOJuDHCcYrHQaph+j7qrzbw98exgAy92dLCyp1fZixv0B/Z5SBl23zawyi74aAHOM3NtF2XYiuzwcYeMsc6lmp9B/moNTGg4az6BnzEk3NMfDK6oH3fxQlAJCeobxDy0fLiwCL5B85y4TYGyT47wK9GLyWp5n9E6ivJftdjNiIfZomXweQIf27o4FKLOfJLeTM6dGGnTLrmp017zM0Lmcc2xgj9qCAXnJCq4Dup/P9KOFNjsgpVHRz4Vnw0Wo/KQLoHjwAf2Zcgn9Rnqz9vo4Qe4gE/x2UWcgC4Km3rnh/T5sPWD1O0v/uec47pth9AJ3GTcTIwi+DnH6xlgP/5aHxhUZzCsW2dWMxbd1nSP+nfBvPX0mSB7T6vXY1vlcUKrshLsQeI8F/x6RI/FgAdIInrZubusfs6mmKMqeKzwc4pxmiBx1NreV+Ly2BHhI5H11jM2QfZs0p0cl2QrOum90Zq88wlE9L15zj7nee9rTv5+46ncZKP1shnjIJ/jsk/59eYjnA6KCzOEb9oN/sn/8zzWyl/frrSH45TAYIfjnD0Fk/xkHDnF7QqXVW3oTWl8yTVfre2h0YT4PvkPkgWHZhO79j9oI0cw8APOgNzjIh9gYJ/ttWID0SwffPJAU02q+a4/1NISKva0CCoa831y+fXbC/kceUf+zeRubONGaH09YYZyP4gMy3gyR34CS1VT6fGfwzmTln0eY9ThG71EP/bcdx3Oz8LcmQWQDw03bEWSbEHuEc/iPcrQzjfDmswmfMKXjUq3St+J4ZQ7XfcBmimDGHPQLK+2afGr06qSa/H1Wjn0dV+KiheHlAlSxlDZMEQ4U/HlUDF8Oq86pZY/GroLmuuqDqS86pbHpKDbxpe+dQybDDTQz1VEpNntXMNvSA6vp8VMW/n1Txq6Oq772A8mq6av+htP6uSF9WXlAc7Ss9JkoppeZV/D3bsT9kbu/q59GuhmzDKuc+tI6L1q4mba1sbr77MTTFVYg1yoqfoet+CLE3SPCv0NzH5gvKSidN6U1+Fb4YVzMlg/UdHoyqsBWsSqY6nwpfK3/918yHpevyf1oMIYtq6j2/0uxt6AEV/WFIhSkP/uZYc0fwt4KcM/grtaimLgaUUVO+j8axy2pqvf3bMVOqs97a5ifOsnFzH9eZwjdWa6+cKJuiyv60webmux9DU3F7wmrcWfSN2ZbrsxpC7BEHlFLK+WtA7JJCntxjc2yIVm9g3Wd1V6xbZ2A4RwMt58nlClCjYZQVbl8+l6OwzK61v57kux5eHSnQ/v0S8dedpfvDxFu1RL7T6UplGXrFWSrE3iDBX+wtv3TTGBgm/+Y4SzfCztK9b3mCyN8iTBhR5jIDVPBSCyGeCbnhK/aWV6J0H4XCrTgTz/Dm81blR4aZKEDwUq8EfrGnSfAXe4yXyx934q2bZvy7/fb4VI74zRn0pk6i7zzd7jIhNku6fYQQogrJlb8QQlQhCf5CCFGFJPgLIUQVkuAvhBBVSIK/EEJUIQn+QghRhST4CyFEFZLgL4QQVUiCv9h78gl6wxE6vn62yWV2zfO+f2JfkCd8xYbyv43R9/k4s/dmyeDFHwjS+W4XoU0maK/Y/R6aXxokcyqOSrQ7SyvzR4zuSwlbkhsN7/EgweMRgi/rrPdC1V23E/snxHY5XvEsxKqladX3il723vzipJ8cUuXZCHbAvaiZ1KUkP8HmFJPWuE5N7Wr8kXOJp2gH9m9THk2r+NVRNfnAWSCqmXT7CHfLs/S81EbvL3loCjM6u7iSzH3xwRQDb3rJ30mQci63x6wkpX+ySDY9SfRlDf4cI3Kyn51I2Lgv3O6j493zdF+VbiaxSoK/cJX5rJPBP4CmKDMPxum0dfHoh4JEb8yTnR0gVLLUHlajYxwOMZCKE9aA3wbo/9FZSYjqIcFfuEgx+OUsoBH+fAB/jbPcZBz1UdrrXyB9vYfTPg+eBmvynabnepq1Xs6cv9Nvq99C5IsU7mnqd0hNmMgJgDzZheLMHLE3mvEEB8kt55g412Juj7eDiZKN2c39s7bB1+PyaypFj89D8xsxcs6ihRSD51pptran2R+h/7ZVy7qxHPlyBoDszW4i4QiRcITeW46tKKQZu3SaluJ+NXhoCfUwdn+tPRP7nrMfSIiVROqOJOfrW1TxU1ae4hpN+Y6FVfCosZJvWD8TV840wIvXQivlWr2udN1cXjvkVfo2+8TXSlSv1KIaOubM+Wslam/qVFFrHzRdU+BV0ZWk8Lu9fxUki3fkHVZ3LyuflXNZM/wqeMyndM38/+BXi0o9HFDBel3pdda9Dk1Xer05BT+3pZZ/FFehYp06nwqcCSq/Ucw5ravwNeeeieeBBH9R7lrI/OIfGyoLaGuZ/8RvLnMoqmbsydcfTanOJhRoKmQPIk/GVVhDgVd1pZZWZi/+0GmeeMqC4+asGfwfDakAKAiqoZXNKQZec3s6f7AKlpZUcct2f/82G/yL9Z3rzarJ9/wq9I1tnvV5uieUn1d9R83t8V6cKSlZ2VYtpOKV/iGIfUOCvyhXDP4VB99iIPKpvoyzbI2TyY3wmutYSrS7XBlvTjH4Bz/PquxDc5r7PqoCulugWw3+3g/dAuTT2L9NBv9UlzJAcaRv4xFX6wX/4sijNdqJnzKPS+BLif7PG+nzF9uXTzL9J3AwRKjJWQi8HiIA8PssZu8zpO/OAhA4VX7LWHuhEY9z5hYlP2ik8QVzanljkFRew/v2ODOf+p1VgRB9n7hk3t2D+5e/O0MOME6G8DoLNyH/4zSZddoJnQoAkL5X3DPxvJDgL9b2YI6KBgcuZMwbkTW4Pzyle8xg9zi7csMys2A+fuXRd+lBMYvvH6OMXrWm72fILi4xfy3suFG9gT24f9mH5ppqa1y3qGIbtaPr5mkqv1B2q1nscxL8RbkTbfgB/kiSdB+aUmqNwLFieckcDVPfiGHNajTMoFhYtlfced4TnXS+Y02v+7FWuzl7eP+2bY2RXCuWzdE++sHinonnhQR/Ue5gO5EjmEM+P6ng2v9wq3my+DPNrFuw+ylldocc9tNqzWpsaARgJpW01zQVYMk571l6qvu3yKLzhFs8udj4/m52W2Xum91LW+Xzr99OMmV29/heKu6ZeF5I8BcuvHT9K4wGZD4L0vGdy0/+hQTd/jYGFwCCBE8AJOj9yBlE8sT+HScPBNs7VrpbjBNtGED+eoyEPaA+TnL+7GD5eHYg/0uMnkv9JP5wluy2p7F/Plp9ACni39qi/3KG4de6KTuFnAwSBLg9xPDj0qL8nX76neP4geyCyzPNK+300vOro+xxjP5v80CQjre38pNJ7GnOO8BCmBbV1Dur78fRDgVU+ExYhc+EVeBwcQy4Xw08tKrfs54NAOU9FVUDV0fV6NU+FbZG0WinnOPgV8fb0xRWfVdH1ejHYeWtQXHQMEeyOEbDXD5ktXV246cP1hzq6Wq9kTaWXd8/pRZvhK3nAgwV/nhUjX4eVcGDKOq8ylvvHOqp1Ezx/UU1XrP+1QEVPWXOKxm19LBP+W3tDlwMq86rq+P85z5cbSd0cUCN2rfVOZRUPDck+It1zd/oUoGVB36Kk6a8p/rUZDHwW5bujarwIWddXfneG1dZ+9j4lQXKXxxnHOtT00vjKlwWHBfV0Akr+LoNWXTYbPA3TyzrBP9d3z+llFpS0x8HzGGg1qQdalfjD2esh9AcD3mpRTX1nn/lQTJz0pT3zVE179iemQ99Jdvh/9T2kJdaUnNXw8prPSC2Muk+1XXDXk88T+SVzqIyhTy5xwWo0TA2umuaz5H7C0BDP1jB65OL9euMrd2Qfdp2e/+Kx1rTMeo3bB2W8+Ry5l0BzTDQ17qJW2x3ne3I53LmTepK1y32LQn+QghRheSGrxBCVCEJ/kIIUYUk+AshRBWS4C+EEFVIgr8QQlQhCf5CCFGFJPgLIUQVkuAvhBBVSIK/EEJUIQn+QghRhST4i6qU/rqDSLiXRPmbj7ctf6uXSLiD4fvOEiH2Dgn+YkP538boORfhVX8zzf5XiVzoJ/HbLkTNrcpP0NFYS23j+dJ3569j9tYYEzfHSC44S7Yv+5PZdsL56n8h9hAJ/mJthRT9AQ8efweD306Q/C1D5rckE1/3ctrvwfPaMC7pQXbH4xRjIzH3RC65GVK5AoXcDLPlWVKEEC4k+At3y7P0vNRG7y95aAozOruIlf+BxQdTDLzpJX8nQcq53G653UfHu+fpvuqSVvJwL1PJOJOzSS4fdBYKIdxI8BeuMp91MvgH0BRl5sE4nUdXXwCvHwoSvTFPdnaAUMlSz4qG90Q7Ids2CiHWJ8FfuEgx+OUsoBH+fAD/GslBjKO+lZy1UCB9vYeIvxlPg8ecvK1EriQpuzvwSw8tDc103zFzAfeHWqxlmmk9FyNj77fPJ+gNR4h8aSYSz97sJhKOEAlH6F3JU5ui199M8xux8ty4yxli51pptrap+Xg3E25dR7C5fQAgT/LKaVqKdX0RBn9xrynEnuNM7SWESlv5arV2tXG2XNPU21Z6wzqfCpwJq/BJvzJqrFSEzpy710IKUMH3LytfDQpNV3q9rrRifXs+3IcDKlivK73OSi1o1dXrdRX8vJhiMK5CuKQ5fDKjolbe39J1eJW3yfxv9N5q9U3tg1pU8VNW/RrN3CbNSqN4yEzdWFkKSSGeDQn+opwVnDk25EhKvra5r7pUX8KR7/XRqApqmLlx7Tlli+2D0s+Mrua/fRRXobryoGxfxj1/r3vwn//YzFurnbSt48m8GjpRzMNbup5N7cOElWy9qUtNLxVnlia9l+Av9jLp9hFr+5vH1q2zPt97Q1w+ZZTOrO+k/ThAmpnfS4sAtJOjZCY6MYrdSvXtRM/qQIb0todJpoldSwNeuj63raPGS9cPGQZecVTf5D5MfDtBAQh9PERgJdWtTvDqHJNvV3rUhHh2JPiLHVd4nCO3YE75dcbdNx5tKzu5NOoeANJpl1E9mzLL7B9AfZDQEUdRjUGjuZo1rb8PaaZnAQKEXneWaXiNDRoXYg+Q4C/W9mCOikPwco6JC600/tcBahsaaXzBnHp+dFasUFnA3aSFDFmAOp1GZ9laKt6HDNkcgAeP8+wlxD4hwV+UO9GGH+CPJMmKBq/kmXjLS+TrWXh9gKl0luxDcxo44az7lBgGHsyTSMFZ5moz+9BIYz1AgaXtnqSEeEYk+ItyB9uJHMEc8vlJBdf++TgDNwtwMEpiIkrwsIFx0JwaV/rDn7KaRgwNWJhm2uUEVha0N7UPjXjqAWZI/eQsg8LyknOWEHuOBH/hwkvXv8JoQOazIB3flY2eh4UE3f42BheAXLZ8fD3A4yTJCs4dm5FdqPSFEm20BQBSxL4uXSbzv6+azxjYbWofDIIBA8gTH0mUlOTvnCfyhWtLQuwpEvyFK/3NGJPveIEcY281Uvti28rDVW2+Wg68cJrh36wOlcOnCRnAwiCRc2PMLuSYvd5N24uvEvvT2fIWWV1RheudRK7EGLwU4fzIekFWp+v/dGIAsx+10nZhkNjIIN0BD83/M41+0HE5v8l9CHzcSwAoXD9N81v9xEZi9L/VjOe1GEsHHSOGhNiLnGM/hbCbv9GlAkZxXHxx0pT3VJ+afGir+GBIhQx7HZT3zVE1ftFbNp5e3QivOWZ/7kNznLz3w/KymQ/NcfvFyf9pcUz+uAq7jPNXSqnsjXbltR7UAhSaV7XfyFrrcWzXZvZBKbWU6lMB3Va/xlCBj6fVkrV/Ms5f7GUHlFLKeUIQokwhT+5xAWo0DGPtIS6FxznyBdDqDfSyvvIdUNyOOoN1NsOhQH4hTwEN/aDORpu12X3I53IUlkEzDPQ1XoUhxF4jwV8IIaqQ9PkLIUQVkuAvhBBVSIK/EEJUIQn+QghRhST4CyFEFZLgL4QQVUiCvxBCVCEJ/kIIUYUk+AshRBWS4C+EEFVIgr8QQlQhCf5CCFGFJPgLd3/E6Lbe329OHfR8ESPxa77CtIhPQX6CjsZaahvPk3Bm5trz0vT/vZbav7Ux6JIv4KnY18dPbJcEf+EqfbWf4ZsTTKxMYwx+cJ7Tf/dQ6+1g4rFziWcgN0MqV6CQm2F2vbwue1KamV8LFP6aZeZeaUnmdozY9RQu2Sd31r4+fmLbnC/4F0IppeYumklVVhKSPFlU2fSkir5sJXY52qfmHcs8fUtqPhlXk7OLzoJ9YXF2UsWT82qpZO6cijahIKTiJfN3w/4+fmJ75MpfVKZGxzgcYiAVJ6wBvw3Q/6Oz0tOm4T3RTuhoxVld9hT9aIj2E94Nk8vsnv19/MT2SPAXm1MTJnICIE92oTgzR+yNZjzBQXLLOSbOteBp8ODxdjBh77sopIldaKOlwWOVtxK5kiC3Rn9z4f4YPSGrrQYPLce7id2333FI0etvpvmNWHny9UKasUunV9fV4KEl1MNYyfLr+KWHloZmTrvkCc6NnKa5oYWeX0rmrh4DCqRHOmj1Wuv2nab/jrMTJ8dYewseXw8pa0766w4i4W4mcgAzDBTvt5wbZjWHfIH09R4i/uaV/TKPY7K8m8jah+47UPilnzZre1qvFFvbxeMn9j7nTwEhlFu3z4pFNXTMzFkbvlGcZ3VVNHWq6CmzW0jTtdK8t4/iKlRn5cU9FlbhM2EVOGR1IR2+rGaerK5BKaUWr4WVbuXG1Q4HVPCoV2k1KDBUV6pYK65Cbrl7beuizqcCZ4LKv5KHWFfhaxV0c1wLmdvqlmfY9djYjsEZ3dzuel3penG9XhW961Lf1r0z9Z5X6fW60or7Xa8rvV5XelOXmirWedtqr86nAmfCKnzSrwwrR7F2dtLW/uo+BN+PKi8oajSlayhOFde4i8dP7HkS/IUr9wCnlHo0pAKgIKiGVmJAMZCZQa7zB6tgacnqz55XfUdRoKlQSeBYUlP/MMwA9ZVt/mJchTSXgLk0pwZO+VV03eBfXBfKe3FmZa5SSi3+0GkGQS2k4hvFr60Gf1DU+FQ0tdqTP2PVXw269vrOvv215lulX3WpvkQxcb3l0agKatYy9pOotQ+A0k4MqXmrbGll03bx+Ik9T7p9xLoKj3PkFswpfauHthe7SQHeiwN0uXQVez+cZPSkVaBpZn/2/WFivwHHBoi/bV9II/hBB14geXN8ZW7+eoxEAbQ3Bxh42V7dRzQxw8ArtnlOxXUd6WPqU39JkX5ylL5TQCHB0LdlnSQ7xEs0NcfAK6s9+f6PogQA0jO27put8b03xOVTRunM+k7aj2OOIPq9tAiAujDxiS68VnJ5bb2bDM/8+ImnRYK/WFfyg0YaXzCnljcGSeU1vG+PM+MIDKYQfZ/4nDPh7iwZQK/NMj4SI2afUnnzBPEgvRIYZ2ZnAGg7Fba3UpH8j9NkAONkCK+zEAidCgCQvmeuY+f5aLWfsAB0Dx6APzPbDv529hNzfo37JgDe9/oIu5yo3Tz74yeeFgn+Yl2+f4wyetWavp8hu7jE/LUwFcYSANLpDAD5O/2cf/e8Y4qZAbG+0QyQQG7BvKrUrCvVzcg+NG9d1ta4X97qurmW/ELZLc6noLD9B+SWc0xcaKXxvw5Q27B6Yu7ZoZFXe/v4iZ0kwV+sy3uik853rOl1P8Zmor7F4zEX8l6cw7rPVD7djeLozNiajU4Yy2b41Q/uyNqesjwTb3mJfD0Lrw8wlc6SfWhOAyecdbfouT5+wk6Cv9h1xhEfGpC5P+sscuU/anY4pO9tvpPE5ze7o9ZaVzJldlf4Xmp1FrlazGedsygsLzlnPR35OAM3C3AwSmIiSvCwgXHQnBrdL9Q3baePn9i7JPiL3XcqQkgDbg8xXMFrIXxvhDCAzLeDJB192Zn/9DB8v3ReiZNBggC3e+n51VH2OEb/t3kgSEfJjWcXfh9eIH9rrGQb8nfOE/niaXR5ZMmsPEdhyWXLx+MDPE6S3Px50t1OHT+x50nwF7uvJszAv/xAiu7GZiJXYsRuJUiMxBi8FKG18QCtn9nC2it9DJ7SIBfj1YY2ur+IERvpp+MlD83/HFw/0OldDH3oBTIMBpo5fWnQvLF8JUJz43mSBY3QtXHXkUoljnTSfgjIxTgd6GZwJEb/uRYaX4vBIbdboTvFRzCgAbP0nelmcKSf7td6SQIcPk3IABYGiZwbY3Yhx+z1btpefJXYTr0cbqeOn9j7nGM/hVBrjmVfy5y6fGjtselF89+ElVcrPg+wOmmHwyqecVR+Mq+GTpnPAKxMNYYKXJxSq0PMx1W4bJy6UkotqbmrLuvSfarrhmOM/Hoejqv2lecXrPV/PK2WrPHzznH+ax8DazsJq/GVeevUfxRXYd223rr2lYe81IMhFTJK98v75qgav+gtfahOKaVuhM1yl2cVTLt8/MSedkAppZwnBCF2U+FxjnwBQEM/qK//bptCntzjQmV1XeRzOQrLgKZj1G92aVOxDc0w0De6IbqDzPW673fxGGr1BrqzcAftxPETe5MEfyGEqELS5y+EEFVIgr8QQlQhCf5CCFGFJPgLIUQVkuAvhBBVSIK/EEJUIQn+QghRhST4CyFEFZLgL4QQVUiCvxBCVCEJ/kIAkCfxUYRIeJCUs0iI55AE/wrlb/USCXes/y55sY9lSV6fYOJmEjPppBDPNwn+Fcr+NMbEzTES7gmOnhN5UtdjxG7vYvj7I0FsZIxUBUldKvI4xdhIjMQfzgIhxHok+AubBH3t5zl/YdhMqr4L0le7Of9uB323nSVbdLuPjnfP0311t7ZYiOeTBH8hhKhCEvy3JUfsjWY8wUFyFEiPdNDq9eBp8NDs72aimIP1cZL+UAueBg+ehhZOX0mSd7TELz20NLTQ8wuwkLDV99AS6ie5VjfJQorBc600W3U9Dc20nhsk5cz/at/W5RwT56z2vR1M5Is3OweYAchN0B2OEAlHiHyUKN3WQprYhTZaiuvzthK5kiDnyLVb5v4wHeEI3TfNhOgzX1rtu91HqWSf8gl6wxEiX5oJxbM3u632IvTesm3xQopB+/Y2eGg53k1MuolEtXOm9hLu3NMazqloE4qmThU9oytAafW60uuK6ffCKv5Dn/LXodB0pdfrSium3rs4Y29IKSs1YPC/o8pXg6JGU3q9rvRiKr26djX5pHQRdTeqvFZ7muFXwTMB5Suuu8anLt+1V7Zt6ynNXEbXrNR/WTVwQld6vTkfrHXX60o/MaBWEvc9iquQ1b73WFiFz4RV4JC1zOHLasa5fXY/dClvyf5Y7dd7VdcPtnqV7tPDARW0H2vr+Or1ugp+bm3xwwHlt/bHOBos3V78qq8kdaR1fNzSKgrxHJLgX6F1g78VmKKpJWv+oho9WQwyKO3EkJovBsaV4GbP57oa/MvqP5lXfUfN+b6P51frP5lU7XVmYAtdW81qq5RS858HzJNMSW5W27biVZ0/WMssLaniVisVV6Gy5YqK2+Fc35Ka+oeZazf4Vel2uHE/jpZN79PqcXPNU7s4qS6/N6rmVndQKaXUzPvmNpQuI8FfVBfp9tkRXqKpOQZeKeY41ek822b+synK9A9deIu5X1/uJXoMYJZpZ3cHoJ0cJZu01a/xcvnzTnQgfS22eiP2+jBjf4H2ZpzJt/XVBgDv+zG6moA/Ywz+WFJkln84yehJaxlNK8sP6+r+MLHfgGMDxEvWpxH8oAMvkLw5bpu/BdvYJ1d6iL6vOvE5dtDfHsYAMvef66FbQqxLgv+O8NH6smPW3/14AXyt+EuSfut4/mb//1KNR9soDXvAiSBtAH+kV4J/8qdpANpOhe01LT5CJ3Ugz9x9592FEH2f+BzzKnB3lgyg12YZH4kRs0+pvHkCebC6fVux9X2qwHKe3ELOnB5tYXkhnjMS/PeVAgXrX7kFM4BpJSeWVY26B4DcQ/MG63al0+bY//ydfs6/e94xWb9I6hsx17o1u7FPhV8GOf1iLQf+y0PjC43mFIqRc1YUospI8N+ntA36agrLSwAYLzQ6i7bE4zF/j3gvzmHdKyqf7kYxnAtuwo7v0/1eWgI9JHI+usZmyD7MmlOic1vbKcTzQIL/HrO0XLy2t7k/Y15ZH/Ljt2b5DnsBSN9z62jJM303B+i0HCnrRNoS44gPbZf7yXd6n5JfDpMBgl/OMHTWj3HQMKcXdGqdlYWoMhL895jcF0Ei35b2SSc+MYOYcfI0xd563xsh86bl1z2MOZ8B+LWPwZ8Bo4POE46ySuSy5e+3ORUhpAG3hxh2rm8LsgvlHS/b2afsQtkWk3/s3refuTNN5R1HQjyfJPjvMVpdgYlzHprf6ic2MkjPa42cvl6AujDDnwRWK77Sx/AZDf5K0PFiCx1XzJuvgxfa8Px9kAxeoreGsC1RgSBtR4HCGJ3hfmJf9BD5p9U/XhNm4F9+IEV3YzORKzFitxIkRmIMXorQ2niA1s/KA7qT73gADZj9JET3FzH6L7xK7x2rcCv7dKINP1C43knkirkt50fM7QieDAKQ/J9X6f8xTe73JINvNdP8QWrl3okQVcs59lO4cx+fPqcuH1pjbPg9azz/mZLR/EoppeKnzLH20Xu2mSvj1afV9McBpVtj/gFFU1iNPrDVLXqSVZMXA8qosdUFRVNIDaw8c1C0zrba3b1sPmRWbOtl20NeSqn5b8LKW3xQyzZph8MqXvLQ1FoWVdx6IM6cNNVuf8hrU/tkmvnQV1LX/2lxixfV1Hv+lQfrAIUeUNEfhlQYFKfsR6LC4yPEc+KAUko5TwjiGfj2NAfOJfBenGP+Ux8U8uQeF0DTMeo3uBNKgfxC3ryarTMwKusSX4fVXo2GsUZjhcc58gUADf2gXtmzAnb5HLm/QKs30F0X3uQ+FY+XW93lPLlcAdbZHyGqjQT/vcIZ/IUQYhdJn78QQlQhCf57xUaD3IUQYgdJt48QQlQhufIXQogqJMFfCCGqkAR/IYSoQhL8hRCiCknwF0KIKiTBXwghqpAEfyGEqEIS/IUQogpJ8AcgzfC5CJGPEri/Af7ZmP13G80NLfT+6izZfflbvUTCHQy7JJkXosTv/bTW1tL6b7ckPBW41YHnwAFOf7vfXrSdY/j4AQ54OkgsO8v2vi0H/4qCQ36CjsZaahvPP92Ds+n1zpL4doKJ68ldT/KR/66Dxr/V0vhuwllU6n4vkY9SZP/eS48zOfxTkP1pjImbYyR2L3EXUCDz4yDd4QhtPg8txyN0XIqR/HOvBIE0/X+vpfZvbQz+6SxbX8Wf8z6W+TlFbhk4ZOApFNDqzPSa+V9SZCr63gFk6P/XGHktTOfZtV5xUiA90k0kHGHwF2fZs2TQ9UEYLT/G4MheumyskPMdz5Vyf7+9Q/qy+U57/KrvobNwF216vXEVAkVTVM05i3bY3IfmceNoX8l78ktZ75avC6vxRWfZ01HR57sdD8dVe1N5XoDi5Ht/Sj2jXbcZN9/7j6bav3eWra+yz3kfezig/KBoalfjD+MqDCr0TVZNvmfmVvB9PO9cwl2qSxmg9HemnCUmx9/Jrv09btmkatdQHOlTFe7xnrG7wV8tqflkXE3OPu2v8WbX+/SCv1qaV1Njk2pmvU1LdilvU0D13XUWPD2Vfb5b9CiuQnXml1l/JaomM8UkLUtq8W5cdb2iP53PogKLs5MqnpxX7mlk1lHJ57yvLam5sagKNZknR03TlK6jqDFU4L14xfs9/Z6hQFedSWfJopq6aCU1qvGqwFEzAdCu/D1u0+RZTYGhulLOkr1tl4P/fvEUg/8+sZufr/llQWknR9e4ul9Sc7P77TqqOi3di6tOKzCj+1XntRm1+MRZay3TqstAobWrSWeR9Z30vjmq5pZ29+9x21ay8O2v6LHlPv/KpOj1N9P8hpUH1m45Q+xCGy0NHjwNHpqP95BYgNzIaZq9p4ktrFbNjZymuaGFHpf+vtQHLXgc9ddd7x8xOvzNeBo8eBqaabswsW7/ZO7nQbqPt1j1PXgaWmi7EFtjmQLp6z2c9pXWTdu7sH/ppdXbzGkrz2yJhRSD51ppXllXM63nBkmV7BtAjtgbzXiCg+QokB7poNVrLeM7Tf+dzfQ/5kleOb3yOXh8EQZ/2WD5hQT9Ydt2+troHklXlhc3P8zg9QLgo/dqJ+55tTR8R72lswppxi7ZtrPBQ0uoh7H75Ws1/15eZXABCvdtn7e3le7vise9dL9bQv0knUnjyTHW3oLH10PKWXK73/Y5m8sn7J/TjnzO6+xLQwunryTXHKCQu91PZKWuh5bj3cRcjhWFNDH7tnhb6ajks8wnOP9iLbUvdTCuBQkaOsGTHsbPteL5WzOnRyq4+buQZDoHvNxGm7OMMPFHS8zf6MS31q2AHbfF75WVRzpzZ6I83uxlzrNBpSo7E69xRf1kRkUPWf14mq70el1pNShqfCp4TC/Lb7veulzz4a613rtWXl1Qmq4rvd68AuWQ15zvqJ/91G9to6H8J8MqfCawmr/2qLOPz5abtkZTvmNB5W+y2je61HSx2lpXCfZtM/wqeCagfFbXCDU+dbmkC2hORZtQNHWqqLVOrV5Xum6tD6+KVtRltKjip6xlajSl1+tK18yf8d5Da/zMXtlOXflOhlX4TFD5DasL50x8jSt5mxvhleNXcV+4rZuIOp8KnAkqv1HcV12Fr5Wu1fx78arOi2Gz26DO9lmjqfC1KdX3sqbAvs8oDkXVTMlVq3WcHXl9F2+EzbzAuk8Fz4RV+KRfGTWOz3RHPue19kVfyUvsvThTuoBSasb6vji3r/xYFfMWo7zHwip8JqwCh7Sy/XX1ZEp1HtRV8PM5tWR930LXlFIPRlX4oF7ZPRLrGK3Z32+zXgzYOVv9Xk2pznoUhFV5xu6965kE//mPzZtC2slRlS1+2Z7Mq6ETtoO848F/XvUdMb/8wau2sPNgSAWLXz7Hdi5+f1l1XZ0r7e99MmMFhNJ1Ll4LmV9IRwBZujegQi9H1w/+TyZVe525bSFHIJv/PGC2W7JtxaBkBoyoLbH5yhe/JDn5GiasINbUpaZXmlhUU+9YbTiP+cp2Or4ET7Jq4BgV9XsWP8tKvvCmedV31D3QLf7QaQZSLaTitsNWXAegfBenVz6/xW+Cq8nc64Jq6IFVYLsYCd9Ybcc9+Get7QmogUe2qk+yat4+uGBHPue192X1JBJScfsJ6/t2179D9XBABXBciFh19X+UfhZLmfmNT+J2D/uUH5T3w811exT3zf/JxpcB68WAnbPV71XxJOqMQ3vbMwj+6xyoJ1k18Ep52Xrrqjj4F0cAOX8NKNsXw63Mxcz7hmN7FtXQCfNLHZ4orVvGLShY87Q33a4bin+Q9ptixXkuVyKLQxXvy/gZ8w+9/Lguqcm3Xa7817tSs8qM98uvRO2Kn2XZFfFa7llBbo3RFObnjwp8uRquVtbh3JYnoyqI+3Fb/DLgsl1uwb84zxH8nXbkc15nX9SiGjpW/rdvHg+3G6jFMmN134ufpyP4b9rijBr9fECNVzzAwrT231+59WLAztn692q9475X7XKfv5tZZv8A6oOEjjiKagwaPY55O+XuLBlAPxmiLD36wUY2XG0+R27BnLJ/OQtnmL0H0EbodWfZxpI/TQPQdirsLAJ8hE7qQJ65+84+Rx+tzmcAdI+5L39mWL/XNc30LEDAZZs1vEb5EZmdnQGgcTlDbCRWOj0ooAO539df62blf5wmAxgnQzjuAgAQOhUAIH3P3DY7n99fOqOmDX8TrsdN18v3152PzrNeIEXPi210X58l73r/p9zWP2eXfUHH8zeADJmVQz7LzD2ARvjD8fmMxJhb1oEc6WL91zsJ10H+P6/S/Nbg1p+v0P10vh8lfNT9Ds5aCltc3e4r//uo7HuVJ+ty32avevrBfyFjPkhVp2M+EvJ05BbMx7c8+mbWWiD1xWmaaw9wwNNI4wvmVH4TL0f2MYBGbY2jqAK5BfPLrq2xbKMVmHIPN/MIWmGDm3YZsjkAD54Kv7Pp3839Tv/nPOffdUzWzUet3nAu5irzx9pfIbvsQ3OdtTXud/2KQTu/4PxMdo/vkxmmLgbQ8ymG21vx1DbSdilhPvC0jt35nO1BNE16wfxvzPn5vHveumGpoRc/Ij3M+Owo4SbIfNfDq95aal+MuN8YFpaNvlf7x9MP/oZhnkGXeaoH0bCuZJeWK19r+qMW2j5IkD3SRfxuluxDc5p8p7IAV6mNcrcXlpcAMF7YzIlrI4001gMUWNogaBXpurmhoWsKq8uwbFq6FnQuVsJ3PIAG8FOCpLPQzRqBcoX1eeoHd/YzWZ9O8NNpFpfmmfq8HV9djtRnp/G+NbHm6BueyuesY35EIeIun405LRE/aVvkUCfjGcXibJzoKS+FPyY4/1ILves9ub9DNjoe+49O40HnvL3r6Qf/mkYMDViYZtrlm7JeIFrMly+wXv0S9QYakLs7Xf4FXV5yORElGRzJAEGGUkO0v2xgHDQnr17rqOvHfwggzcwWvjS+w2aHRvqe29Vwnum7OUCn5UiFl+gVacRTDzBD6idn2Wogsmt9yewwc9/OCp2KENKAx3EGvy37JMoUuzsy993fM5FMmd09vpdanUW7T/MSfD/OXHaS9noo3Iyx3sscdv9zbqXlMFv6O9SPtjOQmCf7aQDIMHbNbRt3lu+QeTyyT/FX2+5IM/cAwIPe4Czbu55+8KeNtgBAitjXmZKSzP++SvedklkA+Kygk7oRLwnca9V3ddwaS/xzjGH7e1qWMwy/1u1yFZpnsWzct1k/kXL+LPdx+qQBZIh/6WhpOUPs0vA6/YTgeyOEAWS+7mHMuc5f+xj8GTA66DzhKNsWg2DAAPLER0pDVv7OeSJflH8hjbMRfEDm20GSlZ50nWrC9L3vBQokLgTp/6X8tFu4P8irL543P5OTQYIAt3vpcb7g7nGM/m/zQJCOt7caMDerQNk1iNZIYwVXsbv/ORu0h33uf4du8vmyix6j3nlhs3t8PjP4ZzJzzqLNW86QuNJDz0iq9OLucYrYpR76b5fGmjXnb0mGzAKAnzbnfcy9zHkHuFLFu+/Gy+b44JLp7SHrjrjLqBullEp2KgPz7njgvQE1enXAfKQfTWnFoYT20TuL4ypsDcc0zvSp0asDKnrSsI1Hr2C0j1Jq6h1zlA56QHV9PqpGP+9SAR1FnaEMzVm/OIIHpZ3oU1PprJpLDqjwWu8ZKXllQZcauDqqRj9uVz6d0vG/bqNA1KIaP2MNc9V9qv3jUTV6dVQNvGc93l42+sBtFEqRte+uZQ6PrBEMoLxv9qnRq6Oq703rcz3oHNFkKj6dWzyG8e8nVfzqqOp7L6C8mq7afyit76pkWC/KOBq0/nZs4/fr2lVxDMrKe3JqvCp0cUCNXh1Vox+HlbcG12GTa48MWee4uX4uLvUf9CkfmvKeiqrR5JzK3p1UfWfMY6Wdsj3n4NreZj/n9fZldaST+3Dc4t9hXE1+H1ejV/tU1zGv0vTV4zr+JgrDr9o/nlQzD+fU1NUu5Xf7/u2W4gg812c+5lX8vdWYEjxkHrfVeNOuhuzbWHx+xPE+r5W/HcdTxO7zXT7vFet8r6yhru77sXdtPfhbY/Vdp5UDar0Yyxn8lVLZG+3Wl7e4jF91JbJq1HXoplJLqT4zUK/U96r2G1lr/K2z/hrrfZJV429bH7o1aYfa1fhDa/ips/6jKdV1dDVIYb2LZupL8w+t7Av5YEiFrAeeViYjoKI/2IKT9UdaNtTxSVZNXgxYD+PYpqaQGrCNNzYVh8u6/CGuvIyssgdOyo5rjaECH0+rJWs7y/bReudK2XaiKePYZTVV8Wi/RTX9eXj1ASfb+v1vm4/0r1pSc1fDqw/YFSfdp7pulH/dil/s8m0vfrldjo1rsHY7zvMq/qZ39XkBazKO9dmeldipz3m9fVkdKln6bIL5dxs9Zl3o2CfNUIEPV1+Yt5i8rALOv1fre/V0FB+OcjyroJTt73jtqWS/rRfEOdta/Cpo1nc+w+M63+3zLlrne/WN2VbZZ73HHVBKKeevgaenQH4hTwEN/aCOBoyFDtBx20v03jwDZT+hyutvSSFP7nEBNB2jvoJW8jlyfwF1BkYFvQuFxznyBSpvv0RxHytf307I53IUlkEzDPSNbrJaistQo2FsZ0OLx7eC47Wyzgrq7qrlPLmc2Wmi1RvWjdbNeAqfs20b11vHyt/rdj/HLUi+6+HVkQLt3y8RLxtyvD9MvFVL5DudrlSWoVecpXvXMw7+5dYP/kKI58ov3TQGhsm/Oc7SDbfnH/a45Qkif4swYUSZywyUP0O0hz2DG75CCGF5JUr3USjcijOx1UEEz1B+ZJiJAgQv9e6rwI8EfyHEs+Xl8sedeOumGf/OOfZor8sRvzmD3tRJ9J2n2122E/Zct48QQojdJ1f+QghRhST4CyFEFZLgL4QQVUiCvxBCVCEJ/kIIUYUk+AshRBWS4C+EEFVIgv++lWb4XITIR4ny/ATblL/VSyQcYfAXZ8l+sHvHZcuWZ+k/3oznpV7csxII8fRJ8K/UHzG6wxE6Lo2RXutBxF+H6Qh3MOx87zyQ+3mQ7nAbLd5WXj3Xw9i2U+XNkvh2gonrSTMt5g7K/jTGxM0Jkg9sM/MTdDTWUtt4nsTTfAx/0+vdvePilL7SSu3famn7bP13wqf/FaH35yxtl3pwZuIV4lmR4F+h9NV+hm9OMPZZB63hMderyvSNQcZujjF4ozR1y+ylZhqP9zB8J49+sMD09UE6Xmqk41ZJtb0tN0MqV6CQm2G2PM/L7nlW661AenaWwl8FZmfXSdVzv5fT/86gnYkTf2oJZ4TYmAT/TdHQNCjcjtLzo7NsDQv9dH6WgaYoM4tzTP80x1Iqipc8Y//qZ4/Fs7Ud7mUqGWdyNsnlp5mn9FmttwLhb2aYHJti7puQs2hF8uoYHOtj+kYYCf1iL5HgvymNdPx3CI0csQ/6Wf/HvuXHaWYB75ud+IvvyX+5k3AT8Nu0S/rIvUrDe6Kd0NGnHcKe1XoroPsJnQ3iXedd/sEv55n/6fLqZy/EHiHBf1MyLP59iN4jwG99dFeQgHxH/BGjw9+Mp8GDp6GZtgsTZDbo/87d7ieysoyHluPdxLZ1nyFFr7+Z5jdi5b9W/ojRfbxldfsuJcgt54i94VL/lx5aGpo5PVLWCrmR0zQ3tNBTcqN5/fVWflwKpK/3lBwTj7eVyJWkaxceyzlSX3TQ6rXXTZCztZ+73kFL2fZaZT8P2rbNXL7ji1TJ8qYUPT4PzReSsJwjceU0LdYyzf4OYn846wuxQ5ypvYS7klyq37ebafyMTjVlSxlXrFOSzs2qq71pS/72ZFyFNRT1nSv5VNd0N2rmOQWl6brS6620koe85nxn6kmlrNSWZprD4JmwCp/0W2kDdRV25Lt145431j0v8prbdzioAvUu9V3TJZp2ZL1rHJept4u5gX0qUHJMUNpZe3ZXpdSTGXX5sJUuUDOU/2RA+XRr+RNDK2kQ3bfXdvzRzPzEx3xKK6ZtPHxZzZSkLLT272TUWqem9Hpd6cX0lnUhFX9kry/EzpDgX6HSL/qiGjpmfjn9n8yX1SkJbE+mVKeBAkOFP59Sc+kpNWAl/LYv625e9R0xA0Lwqi2v6oMhFSwGB2dQLJ6YDkVLg8zDATNZu9Glpm2z3bgHNbcgvIXt25Hgv/n1zn3VpfoSjty0j0ZVUKMs72txO0oSsiulsoku5X99dP3gXzz+zqD9ZF4NHDNPIKX7XkwMjkIPq9GV5OOLKn7Krb4QO0OCf4XKvuj3rCtPLaTiVjRwDf5KKfVgVIWbrC+4dUXof281kfaa0pddr2KVsgVzR1n8FAp01Zm0zSwpM1T0rrOkVNm+KuUehLewfTsS/Ley3jWMnkSBV0XvFedMqy4DBT7Vlymt6+S2veYx1lR4wl7TUvybKfnFZ+2fFlSjziv8ZKfSQXGqPJ24ENslff5bdWSAobMaFBJEL21w2/ZQJ+MZhVrMkn24yJJaYuar4MajP+7OkgH0k6HyFHEHG/E45zHLzD2ARvgjRmykdJpb1oEc6XVGJm7Kprdvh2xzvYXHOXIL5pR39sHnZ5jJAQdDhJocZRtKkrwL0EbILRn5kRDBeuDxHGnnjQbDT1u9Y16Dbu7Lgzl26iMTokiC/zaEvhwgAORGeuj/01m6Kp+zgs1fAAXyVuDJOQOAQ27BfEzJozc6i9aQJr1g/jf27nnOO6b+O3lAQzecy23N5rdvZ2xpvcs5Ji600vhfB6htaKTxBXMqG7K7kDFvLNfAOoN41pAj+xhAo9Z1dE8jeh1AjsyCs2wdy9u5US+EOwn+21HfReyiF5il79IEXp/XWQOYoLNxNdiUTP+ccFYuYRjmNexSxV9+HV0DCBE3u/RcpiXiJ53Lbc3mt29nbH69eSbe8hL5ehZeH2AqnSX70JwGTjjrboe2wQmjAMsABt499syCqD4S/LfJ98kQ7XVQ+K6H3rTbVz9M/NFqsLFPi2NhZ+VS9QYakLs7XT4ccXmJ8tDXSsthgDQz951lu2DT27dqMV/+8oXC8pJzlrvNrjcfZ+BmAQ5GSUxECR42MA6aU6PzIzvSZr6C4c80s84uoQ358B1i7eOfn2Z6Aahvwbdhn58Qu0uC/3bVhBj+JABkGP5f975/rX412Ngn8yp9HcfbaAP4OcawvVtpOcPwa90uD4gZtId9QIb4l+WlO27T2wf4fXiB/K0xkrbgmr9znsgXZSP53W12vbls+TMCAI+TJMs604METwAkGPracWp5nKT/3+u9MM7H6ZOG+bdwqfwVILMfD5ICjDc7CTrKhHjaJPjvAP2/Y0SboFAou+bcHr2Ly+8YwCy9/ja6v4gR+6KbtoZmuu/qGC4nD++HA7TXQW7kVTyBbgZHxkjcGiM20k/38WZqPR3lwXGr1t2+NfrMj3TSfgjIxTgd6GZwJEb/uRYaX4vBIbduMxfrrtfluBw+TcgAFgaJnBtjdiHH7PVu2l58lVjZvRqdrk+jeIHU/3hofquf2EiMwUunaW58ld5vptd9YVzgk2HCdVC43YH3pQ76R2LERgbpDnho/SIDh6Ikvgw4FxPi6XMO/xHuisP6wjecJZa7l5XPepAn+M2Ggzgr9ySrxt8uPjRkTtqhdjX+cE5dPrTGkMZHUyp6zHyWoGTSDBX4cOMhpnMflg9hVGpchd2GULpt39EuNflwtHyIZtHDcdVuH/paY6jAx9NqyRoGuuX1rndcHgypkFF6PLxvjqrxi17HUE/T4g9dyq+V1tcOhdXog9U67sdJKfVw0vX4e08NqOklR9219k/ZhrQeulxeJsQ2HVBKKecJQexBhTy5xwXQdIx656XtGpbz5HLWr5E6A2M3+5nLtm+M0wc6SDRFmcsMlA/JtEZBFZZBMwx019ExFShb7/oKj3PkC2ZX3IbdbrZt3NLxK24b29xHIXaBBH+xSzYO/kKIZ0f6/IUQogpJ8BdCiCok3T5CCFGF5MpfCCGqkAR/IYSoQhL8hRCiCknwF0KIKiTBXwghqpAEfyGEqEIS/IUQogpJ8BdCiCokwX+fyN/qJRKOMPiLs0QIITZPnvCt1B8xui8l3N/lXhek71rXrr68LH2pmZbPMoSuKSbfdpYKIcTmSPCvUDH4ugsRV5O0O2fvIAn+QoidJN0+mxT8vDwXbzYb39XAL4QQO02C/ya55uPddJYPIYR4tiT475aFBP3hVpobPHgaPHh8bXSPpHHN8rucI/VFB61eq663lciVBDlbgnO7wv0YHf5ms25DC6evJMuShQPkfh6k+3iLVc+s23YhRmaNdoUQVaQ0q6NYSzGHb1m+Vjd3o2buVXTlOxlW4TNB5bfyx+pn4qU5dJ/MqMuHrTyvmqH8JwPKp2vm/58YWqlbXH/gVFjpoKjTlV6vK62YH/bijL1Vlf3Ub2szrMJnAspbzEl7tE/Nl9QWQlQbCf4Vqjj4P5lU7XWYScHv2udn1cAxFBiqK7U6u9iudqr0pJBNdCn/66NlwR9QvovTaiUP+MqJJqTiT1aXX/z+suq6OrdaT5knmmiTtW2OhOVCiOoiwb9C9uBbNr08oLLFitdCClD6O1OlDdjKjPeLV+nTqstAgU/1ZRx1HYrr964sW7Soho5VHtBn3jcqO4kJIZ5r0ue/ScbLYcJnHFPYj2GVz87OANC4nCE2EiudHhTQgdzvabNyfoaZHHAwRKhpdR3r8fn9jjk6nr8BZMhYzZbJ58gtmFP2L2ehEKIqOc8Gwl2l3T7xUy6/DByT9rb1q+Ce1WXTFFVzzoYc1lt/cZ2lZUtq+vPQaj+/Y3JrRwhRPeTKf4fpugZA6JrC6lYrm5auBZ2L7bj0Ry20fZAge6SL+N3VZxIm3yn+RhFCVDMJ/jus9SXzJQ/pe2v1wdgcacMP8Gea2R0dfplkcCQDBBlKDdH+8uozCV691llZCFGFJPjvMONsBB+Q+XaQ5IYBPUjwBECCoa8dI/UfJ+n/d8J1/P7G8iw+ds4DljMkUq5vJxJCVBkJ/jut6TIDZzXIxXi1oY3uL2KM3UowNhKj/0IbzbUeOu4UK+t0fRrFC6T+x0PzW/3ERmIMXjpNc+Or9H4z7f4iuQ0VTypJul/rJ/l7jvSPg0RebKbnZ9fHzIQQ1cZ5E0C4W++Ga7lFNXUxoIwa541WTRnHLqupkqe8lFr8oUv5HTdmtUNhNfpgtc7ch2uvf/yMuUz4hm3moynVddR6WMya9FeiaurL8JrtCCGqh7zVc5flczkKy0CNtuE7gFbq1hlsULVy+Ry5v3a4TSHEvifBXwghqpD0+QshRBWS4C+EEFVIgr8QQlQhCf5CCFGFJPgLIUQVkuAvhBBVSIK/EEJUIQn+QghRhST4CyFEFZLgL4QQVUiCvxBCVCEJ/hXK3+olEu5g+L6zRAgh9h8J/hXK/jTGxM0xErPOkudJntT1GLHbGWeBEOI5I8Ff2CToaz/P+QvDVJCEUgixj0nwF0KIKiTBf1tyxN5oxhMcJEeB9EgHrV4PngYPzf5uJhasao+T9Ida8DR48DS0cPpKsjw37y89tDS00PMLsJCw1ffQEuon6ZaTF2AhxeC5Vpqtup6GZlrPDZIqrnuFbVuXc0ycs9r3djCRz5P4KEIkPMAMQG6C7nCESDhC5CNHHuFCmtiFNlqK6/O2ErmSILdhvmIhxJ7iTO0l3LmncZxT0SYUTZ0qekY30y/W60qvs1In1oVV/Ic+5a9DoelKr9eVZqVU9F6csTek1LWQAlTwv6PKV4OiRlN6va70YnrHunY1+aR0EXU3qrzFtI+GXwXPBJSvuO4an7p8117Ztq2nzPSOmq4p8KrovawaOKErvb6Y9tFad72u9BMDKlts4lFchaz2vcfCKnwmrAKHrGUOX1Yzzu0TQuxZEvwrtG7wt4JtNLVkzV9UoydX8+dqJ4bUfDEwrgTssBq3tVQM/mX1n8yrvqPmfN/H86v1n0yq9jozUIeulSYFnv88YJ5kmqJqbmWubVvxqs4frGWWllRxq5WKq1DZckXF7XCub0lN/cMwT1xfOZITCyH2LOn22RFeoqk5Bl7RrP/X6TzbZv6zKcr0D114a6yil3uJHgOYZdpl2Kh2cpRs0la/xsvlzzvRgfS12OqN2OvDjP0F2ptxJt8uTc7rfT9GVxPwZ4zBH0uKzPIPJxk9aS2jaRS3el33h4n9BhwbIF6yPo3gBx14geTNcdt8IcReJsF/R/hofdkx6+9+vAC+VvzFQA6Ajudv9v8v1Xi0jbI86yeCtAH8kV4J/smfpgFoOxW217T4CJ3UgTxz9513F0L0feJzzKvA3VkygF6bZXwkRsw+pfLmCeTB6vYJIfY2Cf77SoGC9a/cghnUtZITy6pG3QNA7mHWWbQl6bQ59j9/p5/z7553TNYvkvpGzLUKIfY6Cf77lLZBX01heQkA44VGZ9GWeDzm7xHvxTmse0Xl090ohnNBIcSeJMF/j1laLl7b29yfMa+sD/nxW7N8h70ApO+5dbTkmb6bA3RajpR1Im2JccSHBmTuP9ePOAtRNST47zG5L4JEvi3tp098MkwGME6epthb73sjhAFkvu5hzPkMwK99DP4MGB10nnCUVSKXpewFD6cihDTg9hDDzvUJIfYdCf57jFZXYOKch+a3+omNDNLzWiOnrxegLszwJ4HViq/0MXxGg78SdLzYQscV8+br4IU2PH8fJIOX6K0hbEtUIEjbUaAwRme4n9gXPUT+GSMHUBNm4F9+IEV3YzORKzFitxIkRmIMXorQ2niA1s9yzgaFEHuVc+yncLfWOP/Lh1AQUnH7bKWUumeN5z9TMppfKaVU/JQ51j56zzbTGufvvTitpj8OKN0a8w8omsJq9IGtbtGTrJq8GFBGja0uKJpCamDlmYOidbbV7u5l8yGzYlsv2x7yUkrNfxNW3uKDZ7ZJOxxW8YytohBiTzuglFLOE4J4Br49zYFzCbwX55j/1AeFPLnHBdB0jPoN7u5SIL+QN0cC1RkY2+7mt9qr0TDWaKzwOEe+AKChH9Qre1ZACLFnSLfPXqXpGAeNCgI/VgA2zPrusXqTrPbWaUyrt9YngV+IfUmCvxBCVCEJ/nvFRgP3hRBiB0mfvxBCVCG58hdCiCokwV8IIaqQBH8hhKhCEvyFEKIKSfAXQogqJMFfCCGqkAR/IYSoQhL8hRCiCknwF0KIKiTBXwghqpAEfyGEqEIS/IUQogpJ8BdCiCokwV8IIaqQBH8hhKhCEvyFEKIKSfAXQogqJMFfCCGqkAR/IYSoQhL8hRCiCknwF0KIKiTBXwghqpAEfyGEqEIS/IUQogr9/wG6Ro87ooOvhAAAAABJRU5ErkJggg==;" parent="1" vertex="1">
          <mxGeometry x="20" y="20" width="219.46" height="310" as="geometry" />
        </mxCell>
        <mxCell id="QplkvuQLvlgCbZkMG5Kd-1" value="&lt;font style=&quot;font-size: 14px;&quot;&gt;VENDEDORES&lt;/font&gt;" style="shape=table;startSize=30;container=1;collapsible=1;childLayout=tableLayout;fixedRows=1;rowLines=0;fontStyle=1;align=center;resizeLast=1;html=1;" parent="1" vertex="1">
          <mxGeometry x="300" y="100" width="160" height="150" as="geometry" />
        </mxCell>
        <mxCell id="QplkvuQLvlgCbZkMG5Kd-2" value="" style="shape=tableRow;horizontal=0;startSize=0;swimlaneHead=0;swimlaneBody=0;fillColor=none;collapsible=0;dropTarget=0;points=[[0,0.5],[1,0.5]];portConstraint=eastwest;top=0;left=0;right=0;bottom=1;" parent="QplkvuQLvlgCbZkMG5Kd-1" vertex="1">
          <mxGeometry y="30" width="160" height="30" as="geometry" />
        </mxCell>
        <mxCell id="QplkvuQLvlgCbZkMG5Kd-3" value="" style="shape=partialRectangle;connectable=0;fillColor=none;top=0;left=0;bottom=0;right=0;fontStyle=1;overflow=hidden;whiteSpace=wrap;html=1;" parent="QplkvuQLvlgCbZkMG5Kd-2" vertex="1">
          <mxGeometry width="30" height="30" as="geometry">
            <mxRectangle width="30" height="30" as="alternateBounds" />
          </mxGeometry>
        </mxCell>
        <mxCell id="QplkvuQLvlgCbZkMG5Kd-4" value="DNI Vendedor" style="shape=partialRectangle;connectable=0;fillColor=none;top=0;left=0;bottom=0;right=0;align=left;spacingLeft=6;fontStyle=5;overflow=hidden;whiteSpace=wrap;html=1;" parent="QplkvuQLvlgCbZkMG5Kd-2" vertex="1">
          <mxGeometry x="30" width="130" height="30" as="geometry">
            <mxRectangle width="130" height="30" as="alternateBounds" />
          </mxGeometry>
        </mxCell>
        <mxCell id="QplkvuQLvlgCbZkMG5Kd-5" value="" style="shape=tableRow;horizontal=0;startSize=0;swimlaneHead=0;swimlaneBody=0;fillColor=none;collapsible=0;dropTarget=0;points=[[0,0.5],[1,0.5]];portConstraint=eastwest;top=0;left=0;right=0;bottom=0;" parent="QplkvuQLvlgCbZkMG5Kd-1" vertex="1">
          <mxGeometry y="60" width="160" height="30" as="geometry" />
        </mxCell>
        <mxCell id="QplkvuQLvlgCbZkMG5Kd-6" value="" style="shape=partialRectangle;connectable=0;fillColor=none;top=0;left=0;bottom=0;right=0;editable=1;overflow=hidden;whiteSpace=wrap;html=1;" parent="QplkvuQLvlgCbZkMG5Kd-5" vertex="1">
          <mxGeometry width="30" height="30" as="geometry">
            <mxRectangle width="30" height="30" as="alternateBounds" />
          </mxGeometry>
        </mxCell>
        <mxCell id="QplkvuQLvlgCbZkMG5Kd-7" value="Nombre" style="shape=partialRectangle;connectable=0;fillColor=none;top=0;left=0;bottom=0;right=0;align=left;spacingLeft=6;overflow=hidden;whiteSpace=wrap;html=1;" parent="QplkvuQLvlgCbZkMG5Kd-5" vertex="1">
          <mxGeometry x="30" width="130" height="30" as="geometry">
            <mxRectangle width="130" height="30" as="alternateBounds" />
          </mxGeometry>
        </mxCell>
        <mxCell id="QplkvuQLvlgCbZkMG5Kd-8" value="" style="shape=tableRow;horizontal=0;startSize=0;swimlaneHead=0;swimlaneBody=0;fillColor=none;collapsible=0;dropTarget=0;points=[[0,0.5],[1,0.5]];portConstraint=eastwest;top=0;left=0;right=0;bottom=0;" parent="QplkvuQLvlgCbZkMG5Kd-1" vertex="1">
          <mxGeometry y="90" width="160" height="30" as="geometry" />
        </mxCell>
        <mxCell id="QplkvuQLvlgCbZkMG5Kd-9" value="" style="shape=partialRectangle;connectable=0;fillColor=none;top=0;left=0;bottom=0;right=0;editable=1;overflow=hidden;whiteSpace=wrap;html=1;" parent="QplkvuQLvlgCbZkMG5Kd-8" vertex="1">
          <mxGeometry width="30" height="30" as="geometry">
            <mxRectangle width="30" height="30" as="alternateBounds" />
          </mxGeometry>
        </mxCell>
        <mxCell id="QplkvuQLvlgCbZkMG5Kd-10" value="Celular" style="shape=partialRectangle;connectable=0;fillColor=none;top=0;left=0;bottom=0;right=0;align=left;spacingLeft=6;overflow=hidden;whiteSpace=wrap;html=1;" parent="QplkvuQLvlgCbZkMG5Kd-8" vertex="1">
          <mxGeometry x="30" width="130" height="30" as="geometry">
            <mxRectangle width="130" height="30" as="alternateBounds" />
          </mxGeometry>
        </mxCell>
        <mxCell id="QplkvuQLvlgCbZkMG5Kd-11" value="" style="shape=tableRow;horizontal=0;startSize=0;swimlaneHead=0;swimlaneBody=0;fillColor=none;collapsible=0;dropTarget=0;points=[[0,0.5],[1,0.5]];portConstraint=eastwest;top=0;left=0;right=0;bottom=0;" parent="QplkvuQLvlgCbZkMG5Kd-1" vertex="1">
          <mxGeometry y="120" width="160" height="30" as="geometry" />
        </mxCell>
        <mxCell id="QplkvuQLvlgCbZkMG5Kd-12" value="" style="shape=partialRectangle;connectable=0;fillColor=none;top=0;left=0;bottom=0;right=0;editable=1;overflow=hidden;whiteSpace=wrap;html=1;" parent="QplkvuQLvlgCbZkMG5Kd-11" vertex="1">
          <mxGeometry width="30" height="30" as="geometry">
            <mxRectangle width="30" height="30" as="alternateBounds" />
          </mxGeometry>
        </mxCell>
        <mxCell id="QplkvuQLvlgCbZkMG5Kd-13" value="Email" style="shape=partialRectangle;connectable=0;fillColor=none;top=0;left=0;bottom=0;right=0;align=left;spacingLeft=6;overflow=hidden;whiteSpace=wrap;html=1;" parent="QplkvuQLvlgCbZkMG5Kd-11" vertex="1">
          <mxGeometry x="30" width="130" height="30" as="geometry">
            <mxRectangle width="130" height="30" as="alternateBounds" />
          </mxGeometry>
        </mxCell>
        <mxCell id="QplkvuQLvlgCbZkMG5Kd-27" value="&lt;font style=&quot;font-size: 14px;&quot;&gt;VENTAS_DEL_VENDEDOR&lt;/font&gt;" style="shape=table;startSize=30;container=1;collapsible=1;childLayout=tableLayout;fixedRows=1;rowLines=0;fontStyle=1;align=center;resizeLast=1;html=1;whiteSpace=wrap;" parent="1" vertex="1">
          <mxGeometry x="525" y="30" width="200" height="180" as="geometry" />
        </mxCell>
        <mxCell id="QplkvuQLvlgCbZkMG5Kd-43" value="" style="shape=tableRow;horizontal=0;startSize=0;swimlaneHead=0;swimlaneBody=0;fillColor=none;collapsible=0;dropTarget=0;points=[[0,0.5],[1,0.5]];portConstraint=eastwest;top=0;left=0;right=0;bottom=0;html=1;" parent="QplkvuQLvlgCbZkMG5Kd-27" vertex="1">
          <mxGeometry y="30" width="200" height="30" as="geometry" />
        </mxCell>
        <mxCell id="QplkvuQLvlgCbZkMG5Kd-44" value="" style="shape=partialRectangle;connectable=0;fillColor=none;top=0;left=0;bottom=0;right=0;fontStyle=1;overflow=hidden;html=1;whiteSpace=wrap;" parent="QplkvuQLvlgCbZkMG5Kd-43" vertex="1">
          <mxGeometry width="60" height="30" as="geometry">
            <mxRectangle width="60" height="30" as="alternateBounds" />
          </mxGeometry>
        </mxCell>
        <mxCell id="QplkvuQLvlgCbZkMG5Kd-45" value="Letra y NÂ° Factura" style="shape=partialRectangle;connectable=0;fillColor=none;top=0;left=0;bottom=0;right=0;align=left;spacingLeft=6;fontStyle=5;overflow=hidden;html=1;whiteSpace=wrap;" parent="QplkvuQLvlgCbZkMG5Kd-43" vertex="1">
          <mxGeometry x="60" width="140" height="30" as="geometry">
            <mxRectangle width="140" height="30" as="alternateBounds" />
          </mxGeometry>
        </mxCell>
        <mxCell id="QplkvuQLvlgCbZkMG5Kd-31" value="" style="shape=tableRow;horizontal=0;startSize=0;swimlaneHead=0;swimlaneBody=0;fillColor=none;collapsible=0;dropTarget=0;points=[[0,0.5],[1,0.5]];portConstraint=eastwest;top=0;left=0;right=0;bottom=1;html=1;" parent="QplkvuQLvlgCbZkMG5Kd-27" vertex="1">
          <mxGeometry y="60" width="200" height="30" as="geometry" />
        </mxCell>
        <mxCell id="QplkvuQLvlgCbZkMG5Kd-32" value="" style="shape=partialRectangle;connectable=0;fillColor=none;top=0;left=0;bottom=0;right=0;fontStyle=1;overflow=hidden;html=1;whiteSpace=wrap;" parent="QplkvuQLvlgCbZkMG5Kd-31" vertex="1">
          <mxGeometry width="60" height="30" as="geometry">
            <mxRectangle width="60" height="30" as="alternateBounds" />
          </mxGeometry>
        </mxCell>
        <mxCell id="QplkvuQLvlgCbZkMG5Kd-33" value="DNI Vendedor" style="shape=partialRectangle;connectable=0;fillColor=none;top=0;left=0;bottom=0;right=0;align=left;spacingLeft=6;fontStyle=5;overflow=hidden;html=1;whiteSpace=wrap;" parent="QplkvuQLvlgCbZkMG5Kd-31" vertex="1">
          <mxGeometry x="60" width="140" height="30" as="geometry">
            <mxRectangle width="140" height="30" as="alternateBounds" />
          </mxGeometry>
        </mxCell>
        <mxCell id="QplkvuQLvlgCbZkMG5Kd-34" value="" style="shape=tableRow;horizontal=0;startSize=0;swimlaneHead=0;swimlaneBody=0;fillColor=none;collapsible=0;dropTarget=0;points=[[0,0.5],[1,0.5]];portConstraint=eastwest;top=0;left=0;right=0;bottom=0;html=1;" parent="QplkvuQLvlgCbZkMG5Kd-27" vertex="1">
          <mxGeometry y="90" width="200" height="30" as="geometry" />
        </mxCell>
        <mxCell id="QplkvuQLvlgCbZkMG5Kd-35" value="" style="shape=partialRectangle;connectable=0;fillColor=none;top=0;left=0;bottom=0;right=0;editable=1;overflow=hidden;html=1;whiteSpace=wrap;" parent="QplkvuQLvlgCbZkMG5Kd-34" vertex="1">
          <mxGeometry width="60" height="30" as="geometry">
            <mxRectangle width="60" height="30" as="alternateBounds" />
          </mxGeometry>
        </mxCell>
        <mxCell id="QplkvuQLvlgCbZkMG5Kd-36" value="Fecha" style="shape=partialRectangle;connectable=0;fillColor=none;top=0;left=0;bottom=0;right=0;align=left;spacingLeft=6;overflow=hidden;html=1;whiteSpace=wrap;" parent="QplkvuQLvlgCbZkMG5Kd-34" vertex="1">
          <mxGeometry x="60" width="140" height="30" as="geometry">
            <mxRectangle width="140" height="30" as="alternateBounds" />
          </mxGeometry>
        </mxCell>
        <mxCell id="QplkvuQLvlgCbZkMG5Kd-37" value="" style="shape=tableRow;horizontal=0;startSize=0;swimlaneHead=0;swimlaneBody=0;fillColor=none;collapsible=0;dropTarget=0;points=[[0,0.5],[1,0.5]];portConstraint=eastwest;top=0;left=0;right=0;bottom=0;html=1;" parent="QplkvuQLvlgCbZkMG5Kd-27" vertex="1">
          <mxGeometry y="120" width="200" height="30" as="geometry" />
        </mxCell>
        <mxCell id="QplkvuQLvlgCbZkMG5Kd-38" value="" style="shape=partialRectangle;connectable=0;fillColor=none;top=0;left=0;bottom=0;right=0;editable=1;overflow=hidden;html=1;whiteSpace=wrap;" parent="QplkvuQLvlgCbZkMG5Kd-37" vertex="1">
          <mxGeometry width="60" height="30" as="geometry">
            <mxRectangle width="60" height="30" as="alternateBounds" />
          </mxGeometry>
        </mxCell>
        <mxCell id="QplkvuQLvlgCbZkMG5Kd-39" value="CUIT del Cliente" style="shape=partialRectangle;connectable=0;fillColor=none;top=0;left=0;bottom=0;right=0;align=left;spacingLeft=6;overflow=hidden;html=1;whiteSpace=wrap;" parent="QplkvuQLvlgCbZkMG5Kd-37" vertex="1">
          <mxGeometry x="60" width="140" height="30" as="geometry">
            <mxRectangle width="140" height="30" as="alternateBounds" />
          </mxGeometry>
        </mxCell>
        <mxCell id="QplkvuQLvlgCbZkMG5Kd-40" value="" style="shape=tableRow;horizontal=0;startSize=0;swimlaneHead=0;swimlaneBody=0;fillColor=none;collapsible=0;dropTarget=0;points=[[0,0.5],[1,0.5]];portConstraint=eastwest;top=0;left=0;right=0;bottom=0;html=1;" parent="QplkvuQLvlgCbZkMG5Kd-27" vertex="1">
          <mxGeometry y="150" width="200" height="30" as="geometry" />
        </mxCell>
        <mxCell id="QplkvuQLvlgCbZkMG5Kd-41" value="" style="shape=partialRectangle;connectable=0;fillColor=none;top=0;left=0;bottom=0;right=0;editable=1;overflow=hidden;html=1;whiteSpace=wrap;" parent="QplkvuQLvlgCbZkMG5Kd-40" vertex="1">
          <mxGeometry width="60" height="30" as="geometry">
            <mxRectangle width="60" height="30" as="alternateBounds" />
          </mxGeometry>
        </mxCell>
        <mxCell id="QplkvuQLvlgCbZkMG5Kd-42" value="Importe Total" style="shape=partialRectangle;connectable=0;fillColor=none;top=0;left=0;bottom=0;right=0;align=left;spacingLeft=6;overflow=hidden;html=1;whiteSpace=wrap;" parent="QplkvuQLvlgCbZkMG5Kd-40" vertex="1">
          <mxGeometry x="60" width="140" height="30" as="geometry">
            <mxRectangle width="140" height="30" as="alternateBounds" />
          </mxGeometry>
        </mxCell>
        <mxCell id="2F9Jt_OJKnSHU6u-0FBB-1" value="&lt;font style=&quot;vertical-align: inherit;&quot;&gt;&lt;font style=&quot;vertical-align: inherit;&quot;&gt;&lt;font style=&quot;vertical-align: inherit;&quot;&gt;&lt;font style=&quot;vertical-align: inherit;&quot;&gt;&lt;font style=&quot;vertical-align: inherit;&quot;&gt;&lt;font style=&quot;vertical-align: inherit;&quot;&gt;&lt;font style=&quot;vertical-align: inherit;&quot;&gt;&lt;font style=&quot;vertical-align: inherit;&quot;&gt;&lt;font style=&quot;vertical-align: inherit;&quot;&gt;&lt;font style=&quot;vertical-align: inherit;&quot;&gt;&lt;font style=&quot;vertical-align: inherit;&quot;&gt;&lt;font style=&quot;vertical-align: inherit; font-size: 14px;&quot;&gt;PRODUCTO&lt;/font&gt;&lt;/font&gt;&lt;/font&gt;&lt;/font&gt;&lt;/font&gt;&lt;/font&gt;&lt;/font&gt;&lt;/font&gt;&lt;/font&gt;&lt;/font&gt;&lt;/font&gt;&lt;/font&gt;" style="shape=table;startSize=30;container=1;collapsible=1;childLayout=tableLayout;fixedRows=1;rowLines=0;fontStyle=1;align=center;resizeLast=1;html=1;" parent="1" vertex="1">
          <mxGeometry x="770" y="270" width="220" height="100" as="geometry" />
        </mxCell>
        <mxCell id="2F9Jt_OJKnSHU6u-0FBB-2" value="" style="shape=tableRow;horizontal=0;startSize=0;swimlaneHead=0;swimlaneBody=0;fillColor=none;collapsible=0;dropTarget=0;points=[[0,0.5],[1,0.5]];portConstraint=eastwest;top=0;left=0;right=0;bottom=1;" parent="2F9Jt_OJKnSHU6u-0FBB-1" vertex="1">
          <mxGeometry y="30" width="220" height="40" as="geometry" />
        </mxCell>
        <mxCell id="2F9Jt_OJKnSHU6u-0FBB-3" value="" style="shape=partialRectangle;connectable=0;fillColor=none;top=0;left=0;bottom=0;right=0;fontStyle=1;overflow=hidden;whiteSpace=wrap;html=1;" parent="2F9Jt_OJKnSHU6u-0FBB-2" vertex="1">
          <mxGeometry width="30" height="40" as="geometry">
            <mxRectangle width="30" height="40" as="alternateBounds" />
          </mxGeometry>
        </mxCell>
        <mxCell id="2F9Jt_OJKnSHU6u-0FBB-4" value="Cod. de producto" style="shape=partialRectangle;connectable=0;fillColor=none;top=0;left=0;bottom=0;right=0;align=left;spacingLeft=6;fontStyle=5;overflow=hidden;whiteSpace=wrap;html=1;" parent="2F9Jt_OJKnSHU6u-0FBB-2" vertex="1">
          <mxGeometry x="30" width="190" height="40" as="geometry">
            <mxRectangle width="190" height="40" as="alternateBounds" />
          </mxGeometry>
        </mxCell>
        <mxCell id="2F9Jt_OJKnSHU6u-0FBB-8" value="" style="shape=tableRow;horizontal=0;startSize=0;swimlaneHead=0;swimlaneBody=0;fillColor=none;collapsible=0;dropTarget=0;points=[[0,0.5],[1,0.5]];portConstraint=eastwest;top=0;left=0;right=0;bottom=0;" parent="2F9Jt_OJKnSHU6u-0FBB-1" vertex="1">
          <mxGeometry y="70" width="220" height="30" as="geometry" />
        </mxCell>
        <mxCell id="2F9Jt_OJKnSHU6u-0FBB-9" value="" style="shape=partialRectangle;connectable=0;fillColor=none;top=0;left=0;bottom=0;right=0;editable=1;overflow=hidden;whiteSpace=wrap;html=1;" parent="2F9Jt_OJKnSHU6u-0FBB-8" vertex="1">
          <mxGeometry width="30" height="30" as="geometry">
            <mxRectangle width="30" height="30" as="alternateBounds" />
          </mxGeometry>
        </mxCell>
        <mxCell id="2F9Jt_OJKnSHU6u-0FBB-10" value="Precio unitario" style="shape=partialRectangle;connectable=0;fillColor=none;top=0;left=0;bottom=0;right=0;align=left;spacingLeft=6;overflow=hidden;whiteSpace=wrap;html=1;" parent="2F9Jt_OJKnSHU6u-0FBB-8" vertex="1">
          <mxGeometry x="30" width="190" height="30" as="geometry">
            <mxRectangle width="190" height="30" as="alternateBounds" />
          </mxGeometry>
        </mxCell>
        <mxCell id="2F9Jt_OJKnSHU6u-0FBB-22" value="&lt;font style=&quot;font-size: 14px;&quot;&gt;&lt;font style=&quot;vertical-align: inherit;&quot;&gt;&lt;font style=&quot;vertical-align: inherit;&quot;&gt;DETALLE&lt;/font&gt;&lt;/font&gt;&lt;/font&gt;" style="shape=table;startSize=30;container=1;collapsible=1;childLayout=tableLayout;fixedRows=1;rowLines=0;fontStyle=1;align=center;resizeLast=1;html=1;whiteSpace=wrap;" parent="1" vertex="1">
          <mxGeometry x="760" y="60" width="200" height="120" as="geometry" />
        </mxCell>
        <mxCell id="2F9Jt_OJKnSHU6u-0FBB-23" value="" style="shape=tableRow;horizontal=0;startSize=0;swimlaneHead=0;swimlaneBody=0;fillColor=none;collapsible=0;dropTarget=0;points=[[0,0.5],[1,0.5]];portConstraint=eastwest;top=0;left=0;right=0;bottom=0;html=1;" parent="2F9Jt_OJKnSHU6u-0FBB-22" vertex="1">
          <mxGeometry y="30" width="200" height="30" as="geometry" />
        </mxCell>
        <mxCell id="2F9Jt_OJKnSHU6u-0FBB-24" value="" style="shape=partialRectangle;connectable=0;fillColor=none;top=0;left=0;bottom=0;right=0;fontStyle=1;overflow=hidden;html=1;whiteSpace=wrap;" parent="2F9Jt_OJKnSHU6u-0FBB-23" vertex="1">
          <mxGeometry width="60" height="30" as="geometry">
            <mxRectangle width="60" height="30" as="alternateBounds" />
          </mxGeometry>
        </mxCell>
        <mxCell id="2F9Jt_OJKnSHU6u-0FBB-25" value="Letra y NÂ° Factura" style="shape=partialRectangle;connectable=0;fillColor=none;top=0;left=0;bottom=0;right=0;align=left;spacingLeft=6;fontStyle=5;overflow=hidden;html=1;whiteSpace=wrap;" parent="2F9Jt_OJKnSHU6u-0FBB-23" vertex="1">
          <mxGeometry x="60" width="140" height="30" as="geometry">
            <mxRectangle width="140" height="30" as="alternateBounds" />
          </mxGeometry>
        </mxCell>
        <mxCell id="2F9Jt_OJKnSHU6u-0FBB-26" value="" style="shape=tableRow;horizontal=0;startSize=0;swimlaneHead=0;swimlaneBody=0;fillColor=none;collapsible=0;dropTarget=0;points=[[0,0.5],[1,0.5]];portConstraint=eastwest;top=0;left=0;right=0;bottom=1;html=1;" parent="2F9Jt_OJKnSHU6u-0FBB-22" vertex="1">
          <mxGeometry y="60" width="200" height="30" as="geometry" />
        </mxCell>
        <mxCell id="2F9Jt_OJKnSHU6u-0FBB-27" value="" style="shape=partialRectangle;connectable=0;fillColor=none;top=0;left=0;bottom=0;right=0;fontStyle=1;overflow=hidden;html=1;whiteSpace=wrap;" parent="2F9Jt_OJKnSHU6u-0FBB-26" vertex="1">
          <mxGeometry width="60" height="30" as="geometry">
            <mxRectangle width="60" height="30" as="alternateBounds" />
          </mxGeometry>
        </mxCell>
        <mxCell id="2F9Jt_OJKnSHU6u-0FBB-28" value="Cod. Producto" style="shape=partialRectangle;connectable=0;fillColor=none;top=0;left=0;bottom=0;right=0;align=left;spacingLeft=6;fontStyle=5;overflow=hidden;html=1;whiteSpace=wrap;" parent="2F9Jt_OJKnSHU6u-0FBB-26" vertex="1">
          <mxGeometry x="60" width="140" height="30" as="geometry">
            <mxRectangle width="140" height="30" as="alternateBounds" />
          </mxGeometry>
        </mxCell>
        <mxCell id="2F9Jt_OJKnSHU6u-0FBB-29" value="" style="shape=tableRow;horizontal=0;startSize=0;swimlaneHead=0;swimlaneBody=0;fillColor=none;collapsible=0;dropTarget=0;points=[[0,0.5],[1,0.5]];portConstraint=eastwest;top=0;left=0;right=0;bottom=0;html=1;" parent="2F9Jt_OJKnSHU6u-0FBB-22" vertex="1">
          <mxGeometry y="90" width="200" height="30" as="geometry" />
        </mxCell>
        <mxCell id="2F9Jt_OJKnSHU6u-0FBB-30" value="" style="shape=partialRectangle;connectable=0;fillColor=none;top=0;left=0;bottom=0;right=0;editable=1;overflow=hidden;html=1;whiteSpace=wrap;" parent="2F9Jt_OJKnSHU6u-0FBB-29" vertex="1">
          <mxGeometry width="60" height="30" as="geometry">
            <mxRectangle width="60" height="30" as="alternateBounds" />
          </mxGeometry>
        </mxCell>
        <mxCell id="2F9Jt_OJKnSHU6u-0FBB-31" value="Cantidad" style="shape=partialRectangle;connectable=0;fillColor=none;top=0;left=0;bottom=0;right=0;align=left;spacingLeft=6;overflow=hidden;html=1;whiteSpace=wrap;" parent="2F9Jt_OJKnSHU6u-0FBB-29" vertex="1">
          <mxGeometry x="60" width="140" height="30" as="geometry">
            <mxRectangle width="140" height="30" as="alternateBounds" />
          </mxGeometry>
        </mxCell>
        <mxCell id="2F9Jt_OJKnSHU6u-0FBB-38" value="&lt;font style=&quot;font-size: 14px;&quot;&gt;&lt;font style=&quot;vertical-align: inherit;&quot;&gt;&lt;font style=&quot;vertical-align: inherit;&quot;&gt;&lt;font style=&quot;vertical-align: inherit;&quot;&gt;&lt;font style=&quot;vertical-align: inherit;&quot;&gt;&lt;font style=&quot;vertical-align: inherit;&quot;&gt;&lt;font style=&quot;vertical-align: inherit;&quot;&gt;LIQUIDACIÃN_DE_ COMISIONES&lt;/font&gt;&lt;/font&gt;&lt;/font&gt;&lt;/font&gt;&lt;/font&gt;&lt;/font&gt;&lt;/font&gt;" style="shape=table;startSize=40;container=1;collapsible=1;childLayout=tableLayout;fixedRows=1;rowLines=0;fontStyle=1;align=center;resizeLast=1;html=1;whiteSpace=wrap;" parent="1" vertex="1">
          <mxGeometry x="520" y="230" width="200" height="160" as="geometry" />
        </mxCell>
        <mxCell id="2F9Jt_OJKnSHU6u-0FBB-39" value="" style="shape=tableRow;horizontal=0;startSize=0;swimlaneHead=0;swimlaneBody=0;fillColor=none;collapsible=0;dropTarget=0;points=[[0,0.5],[1,0.5]];portConstraint=eastwest;top=0;left=0;right=0;bottom=0;html=1;" parent="2F9Jt_OJKnSHU6u-0FBB-38" vertex="1">
          <mxGeometry y="40" width="200" height="30" as="geometry" />
        </mxCell>
        <mxCell id="2F9Jt_OJKnSHU6u-0FBB-40" value="" style="shape=partialRectangle;connectable=0;fillColor=none;top=0;left=0;bottom=0;right=0;fontStyle=1;overflow=hidden;html=1;whiteSpace=wrap;" parent="2F9Jt_OJKnSHU6u-0FBB-39" vertex="1">
          <mxGeometry width="60" height="30" as="geometry">
            <mxRectangle width="60" height="30" as="alternateBounds" />
          </mxGeometry>
        </mxCell>
        <mxCell id="2F9Jt_OJKnSHU6u-0FBB-41" value="NÂ° Liquidacion" style="shape=partialRectangle;connectable=0;fillColor=none;top=0;left=0;bottom=0;right=0;align=left;spacingLeft=6;fontStyle=5;overflow=hidden;html=1;whiteSpace=wrap;" parent="2F9Jt_OJKnSHU6u-0FBB-39" vertex="1">
          <mxGeometry x="60" width="140" height="30" as="geometry">
            <mxRectangle width="140" height="30" as="alternateBounds" />
          </mxGeometry>
        </mxCell>
        <mxCell id="2F9Jt_OJKnSHU6u-0FBB-42" value="" style="shape=tableRow;horizontal=0;startSize=0;swimlaneHead=0;swimlaneBody=0;fillColor=none;collapsible=0;dropTarget=0;points=[[0,0.5],[1,0.5]];portConstraint=eastwest;top=0;left=0;right=0;bottom=1;html=1;" parent="2F9Jt_OJKnSHU6u-0FBB-38" vertex="1">
          <mxGeometry y="70" width="200" height="30" as="geometry" />
        </mxCell>
        <mxCell id="2F9Jt_OJKnSHU6u-0FBB-43" value="" style="shape=partialRectangle;connectable=0;fillColor=none;top=0;left=0;bottom=0;right=0;fontStyle=1;overflow=hidden;html=1;whiteSpace=wrap;" parent="2F9Jt_OJKnSHU6u-0FBB-42" vertex="1">
          <mxGeometry width="60" height="30" as="geometry">
            <mxRectangle width="60" height="30" as="alternateBounds" />
          </mxGeometry>
        </mxCell>
        <mxCell id="2F9Jt_OJKnSHU6u-0FBB-44" value="DNI Vendedor" style="shape=partialRectangle;connectable=0;fillColor=none;top=0;left=0;bottom=0;right=0;align=left;spacingLeft=6;fontStyle=5;overflow=hidden;html=1;whiteSpace=wrap;" parent="2F9Jt_OJKnSHU6u-0FBB-42" vertex="1">
          <mxGeometry x="60" width="140" height="30" as="geometry">
            <mxRectangle width="140" height="30" as="alternateBounds" />
          </mxGeometry>
        </mxCell>
        <mxCell id="2F9Jt_OJKnSHU6u-0FBB-45" value="" style="shape=tableRow;horizontal=0;startSize=0;swimlaneHead=0;swimlaneBody=0;fillColor=none;collapsible=0;dropTarget=0;points=[[0,0.5],[1,0.5]];portConstraint=eastwest;top=0;left=0;right=0;bottom=0;html=1;" parent="2F9Jt_OJKnSHU6u-0FBB-38" vertex="1">
          <mxGeometry y="100" width="200" height="30" as="geometry" />
        </mxCell>
        <mxCell id="2F9Jt_OJKnSHU6u-0FBB-46" value="" style="shape=partialRectangle;connectable=0;fillColor=none;top=0;left=0;bottom=0;right=0;editable=1;overflow=hidden;html=1;whiteSpace=wrap;" parent="2F9Jt_OJKnSHU6u-0FBB-45" vertex="1">
          <mxGeometry width="60" height="30" as="geometry">
            <mxRectangle width="60" height="30" as="alternateBounds" />
          </mxGeometry>
        </mxCell>
        <mxCell id="2F9Jt_OJKnSHU6u-0FBB-47" value="Fecha" style="shape=partialRectangle;connectable=0;fillColor=none;top=0;left=0;bottom=0;right=0;align=left;spacingLeft=6;overflow=hidden;html=1;whiteSpace=wrap;" parent="2F9Jt_OJKnSHU6u-0FBB-45" vertex="1">
          <mxGeometry x="60" width="140" height="30" as="geometry">
            <mxRectangle width="140" height="30" as="alternateBounds" />
          </mxGeometry>
        </mxCell>
        <mxCell id="2F9Jt_OJKnSHU6u-0FBB-48" value="" style="shape=tableRow;horizontal=0;startSize=0;swimlaneHead=0;swimlaneBody=0;fillColor=none;collapsible=0;dropTarget=0;points=[[0,0.5],[1,0.5]];portConstraint=eastwest;top=0;left=0;right=0;bottom=0;html=1;" parent="2F9Jt_OJKnSHU6u-0FBB-38" vertex="1">
          <mxGeometry y="130" width="200" height="30" as="geometry" />
        </mxCell>
        <mxCell id="2F9Jt_OJKnSHU6u-0FBB-49" value="" style="shape=partialRectangle;connectable=0;fillColor=none;top=0;left=0;bottom=0;right=0;editable=1;overflow=hidden;html=1;whiteSpace=wrap;" parent="2F9Jt_OJKnSHU6u-0FBB-48" vertex="1">
          <mxGeometry width="60" height="30" as="geometry">
            <mxRectangle width="60" height="30" as="alternateBounds" />
          </mxGeometry>
        </mxCell>
        <mxCell id="2F9Jt_OJKnSHU6u-0FBB-50" value="Importe" style="shape=partialRectangle;connectable=0;fillColor=none;top=0;left=0;bottom=0;right=0;align=left;spacingLeft=6;overflow=hidden;html=1;whiteSpace=wrap;" parent="2F9Jt_OJKnSHU6u-0FBB-48" vertex="1">
          <mxGeometry x="60" width="140" height="30" as="geometry">
            <mxRectangle width="140" height="30" as="alternateBounds" />
          </mxGeometry>
        </mxCell>
        <mxCell id="2F9Jt_OJKnSHU6u-0FBB-55" style="edgeStyle=orthogonalEdgeStyle;rounded=0;orthogonalLoop=1;jettySize=auto;html=1;exitX=1;exitY=0.5;exitDx=0;exitDy=0;entryX=0;entryY=0.5;entryDx=0;entryDy=0;" parent="1" source="QplkvuQLvlgCbZkMG5Kd-2" target="QplkvuQLvlgCbZkMG5Kd-31" edge="1">
          <mxGeometry relative="1" as="geometry" />
        </mxCell>
        <mxCell id="2F9Jt_OJKnSHU6u-0FBB-56" style="edgeStyle=orthogonalEdgeStyle;rounded=0;orthogonalLoop=1;jettySize=auto;html=1;exitX=0;exitY=0.5;exitDx=0;exitDy=0;entryX=0;entryY=0.5;entryDx=0;entryDy=0;" parent="1" source="QplkvuQLvlgCbZkMG5Kd-2" target="2F9Jt_OJKnSHU6u-0FBB-42" edge="1">
          <mxGeometry relative="1" as="geometry" />
        </mxCell>
        <mxCell id="2F9Jt_OJKnSHU6u-0FBB-57" style="edgeStyle=orthogonalEdgeStyle;rounded=0;orthogonalLoop=1;jettySize=auto;html=1;exitX=1;exitY=0.5;exitDx=0;exitDy=0;entryX=0;entryY=0.5;entryDx=0;entryDy=0;" parent="1" source="QplkvuQLvlgCbZkMG5Kd-43" target="2F9Jt_OJKnSHU6u-0FBB-23" edge="1">
          <mxGeometry relative="1" as="geometry" />
        </mxCell>
        <mxCell id="2F9Jt_OJKnSHU6u-0FBB-58" style="edgeStyle=orthogonalEdgeStyle;rounded=0;orthogonalLoop=1;jettySize=auto;html=1;exitX=1;exitY=0.5;exitDx=0;exitDy=0;entryX=0;entryY=0.5;entryDx=0;entryDy=0;" parent="1" source="2F9Jt_OJKnSHU6u-0FBB-26" target="2F9Jt_OJKnSHU6u-0FBB-2" edge="1">
          <mxGeometry relative="1" as="geometry" />
        </mxCell>
      </root>
    </mxGraphModel>
  </diagram>
</mxfile>
